<?xml version="1.0" encoding="utf-8"?>
<!-- Generator: Adobe Illustrator 16.0.0, SVG Export Plug-In . SVG Version: 6.00 Build 0)  -->
<!DOCTYPE svg PUBLIC "-//W3C//DTD SVG 1.1//EN" "http://www.w3.org/Graphics/SVG/1.1/DTD/svg11.dtd">
<svg version="1.1" id="Capa_1" xmlns="http://www.w3.org/2000/svg" xmlns:xlink="http://www.w3.org/1999/xlink" x="0px" y="0px"
	 width="512px" height="512px" viewBox="0 0 512 512" enable-background="new 0 0 512 512" xml:space="preserve">
<g>
	<g>
		<path fill="#FFFFFF" d="M356.18,344.596c-8.937,0-16.201-7.251-16.201-16.209c0-8.929,7.244-16.194,16.201-16.194
			c8.951,0,16.202,7.251,16.202,16.194C372.368,337.345,365.131,344.596,356.18,344.596L356.18,344.596z M356.18,291.715
			c-20.259,0-36.698,16.429-36.698,36.692c0,20.273,16.439,36.693,36.698,36.693c20.26,0,36.693-16.42,36.693-36.693
			C392.86,308.144,376.439,291.715,356.18,291.715L356.18,291.715z"/>
		<path fill="#FFFFFF" d="M110.076,344.596c-8.941,0-16.198-7.251-16.198-16.209c0-8.929,7.257-16.194,16.198-16.194
			c8.94,0,16.197,7.251,16.197,16.194C126.28,337.345,119.022,344.596,110.076,344.596L110.076,344.596z M110.076,291.715
			c-20.259,0-36.683,16.429-36.683,36.692c0,20.273,16.424,36.693,36.683,36.693c20.262,0,36.689-16.42,36.689-36.693
			C146.765,308.144,130.344,291.715,110.076,291.715L110.076,291.715z"/>
		<path fill="#FFFFFF" d="M456.145,190.438c0,8.981-7.738,16.26-17.284,16.26H314.183c-9.54,0-17.285-7.278-17.285-16.26V73.198
			c0-8.968,7.745-16.246,17.285-16.246h124.691c9.539,0,17.284,7.278,17.284,16.246v117.24H456.145L456.145,190.438z M456.46,35.604
			H297.419c-12.158,0-22.04,9.311-22.04,20.807v150.155c0,11.497,9.876,20.813,22.04,20.813H456.46
			c12.15,0,22.039-9.317,22.039-20.813V56.404C478.5,44.915,468.617,35.604,456.46,35.604L456.46,35.604z"/>
		<path fill="#FFFFFF" d="M364.911,129.636c2.057,0.469,4.586,0.63,8.054,0.63c12.829,0,20.752-6.49,20.752-17.411
			c0-9.818-6.813-15.678-18.854-15.678c-4.899,0-8.237,0.477-9.965,0.954L364.911,129.636L364.911,129.636L364.911,129.636z
			 M341.008,81.186c7.429-1.271,17.887-2.217,32.608-2.217c14.878,0,25.494,2.848,32.614,8.546
			c6.813,5.391,11.391,14.245,11.391,24.71c0,10.435-3.48,19.306-9.807,25.327c-8.244,7.748-20.424,11.236-34.678,11.236
			c-3.154,0-6.004-0.155-8.226-0.463v38.143h-23.89V81.186H341.008L341.008,81.186z"/>
		<path fill="#FFFFFF" d="M414.133,369.295c0,9.719-8.43,17.512-18.874,17.512H72.186c-10.465,0-18.892-7.793-18.892-17.512v-80.451
			c0-9.608,8.427-17.511,18.892-17.511h323.059c10.444,0,18.874,7.902,18.874,17.511v80.459h0.015V369.295L414.133,369.295z
			 M414.229,248.706H72.72l70.857-122.411c0,0,2.563-5.018,14.516-5.018h73.321c0,0,17.397,1.172,16.767-10.886
			c-0.655-6.407-4.177-10.777-11.757-10.777c-7.467,0-97.541,0-97.541,0s-4.596,0.209-9.609,8.854
			c-4.475,7.7-67.126,116.223-81.104,140.563c-10.142,1.809-17.938,11.733-17.938,23.795v111.101
			c0,13.446,9.502,24.117,21.235,24.117h21.246v53.271c0,6.6,4.273,11.932,9.605,11.932h34.257c5.219,0,9.598-5.331,9.598-11.932
			v-53.271h213.888v53.668c0,6.635,4.263,11.967,9.499,11.967h33.828c5.223,0,9.499-5.332,9.499-11.967v-53.668h21.341
			c11.746,0,21.246-10.671,21.246-24.117V272.827C435.475,259.476,425.975,248.706,414.229,248.706L414.229,248.706z"/>
	</g>
</g>
</svg>
