<?xml version="1.0" encoding="utf-8"?>
<!-- Generator: Adobe Illustrator 16.0.0, SVG Export Plug-In . SVG Version: 6.00 Build 0)  -->
<!DOCTYPE svg PUBLIC "-//W3C//DTD SVG 1.1//EN" "http://www.w3.org/Graphics/SVG/1.1/DTD/svg11.dtd">
<svg version="1.1" id="Capa_1" xmlns="http://www.w3.org/2000/svg" xmlns:xlink="http://www.w3.org/1999/xlink" x="0px" y="0px"
	 width="512px" height="512px" viewBox="0 0 512 512" enable-background="new 0 0 512 512" xml:space="preserve">
<g>
	<g>
		<path fill="#FFFFFF" stroke="#FFFFFF" stroke-width="6" stroke-miterlimit="10" d="M31.798,292.55
			c0.882,0.266,1.851,0.354,2.732,0.354c3.789,0,7.401-2.027,9.429-5.463c41.417-72.966,84.598-77.901,133.857-78.253v43.708
			c0,4.054,2.291,7.754,5.904,9.605c3.613,1.85,7.931,1.498,11.191-0.795l134.65-96.756c2.82-2.026,4.494-5.287,4.494-8.812
			s-1.674-6.786-4.494-8.813l-134.65-96.229c-3.261-2.379-7.578-2.644-11.191-0.793s-5.816,5.552-5.816,9.605v44.414
			c-61.861,5.288-105.834,29.433-130.597,71.819c-21.062,35.954-23.528,77.724-23.528,106.01
			C23.779,286.999,27.127,291.317,31.798,292.55z M189.184,125.207c5.729-0.264,10.223-5.023,10.223-10.751V80.97l105.307,75.344
			l-105.307,75.609v-33.487c0-2.82-1.146-5.64-3.172-7.667c-2.027-2.027-4.758-3.172-7.668-3.172l0,0
			c-47.408,0-96.141,0-140.906,55.605C55.414,187.509,85.199,130.406,189.184,125.207z"/>
		<path fill="#FFFFFF" stroke="#FFFFFF" stroke-width="6" stroke-miterlimit="10" d="M379.705,167.153h54.988V423.06H129.438
			V268.052c0-5.992-4.848-10.839-10.84-10.839s-10.75,4.935-10.75,10.839v165.848c0,5.992,4.847,10.838,10.84,10.838h326.756
			c5.992,0,10.84-4.846,10.84-10.838V156.314c0-5.993-4.848-10.839-10.84-10.839h-65.826c-5.992,0-10.84,4.846-10.84,10.839
			C368.865,162.306,373.713,167.153,379.705,167.153z"/>
	</g>
</g>
</svg>
