<?xml version="1.0" encoding="utf-8"?>
<!-- Generator: Adobe Illustrator 16.0.0, SVG Export Plug-In . SVG Version: 6.00 Build 0)  -->
<!DOCTYPE svg PUBLIC "-//W3C//DTD SVG 1.1//EN" "http://www.w3.org/Graphics/SVG/1.1/DTD/svg11.dtd">
<svg version="1.1" id="Capa_1" xmlns="http://www.w3.org/2000/svg" xmlns:xlink="http://www.w3.org/1999/xlink" x="0px" y="0px"
	 width="512px" height="512px" viewBox="0 0 512 512" enable-background="new 0 0 512 512" xml:space="preserve">
<g>
	<g>
		<path fill="#FFFFFF" d="M229.852,198.217c-15.164-5.086-28.445-14.317-38.523-26.279L89.227,338.749c-0.189,0-0.283,0-0.472,0
			c-33.814,0-61.224,27.41-61.224,61.225s27.41,61.224,61.224,61.224c33.814,0,61.224-27.409,61.224-61.224
			c0-16.673-6.688-31.742-17.425-42.763L229.852,198.217z M88.755,422.767c-12.527,0-22.794-10.172-22.794-22.793
			c0-12.528,10.267-22.795,22.794-22.795c12.527,0,22.795,10.173,22.795,22.795C111.55,412.501,101.376,422.767,88.755,422.767z"/>
	</g>
</g>
<g>
	<g>
		<path fill="#FFFFFF" d="M427.087,338.749c-27.692,0-51.052,18.367-58.586,43.516H172.867c1.224,5.746,1.884,11.586,1.884,17.709
			c0,10.172-1.884,19.874-5.086,28.916h203.452c10.36,19.215,30.611,32.401,53.971,32.401c33.814,0,61.224-27.409,61.224-61.224
			S460.901,338.749,427.087,338.749z M427.087,422.767c-12.527,0-22.794-10.172-22.794-22.793c0-12.528,10.173-22.795,22.794-22.795
			c12.527,0,22.794,10.173,22.794,22.795C449.881,412.501,439.614,422.767,427.087,422.767z"/>
	</g>
</g>
<g>
	<g>
		<path fill="#FFFFFF" d="M309.255,149.144c5.84-9.418,9.324-20.439,9.324-32.307c-0.094-33.814-27.504-61.224-61.317-61.224
			c-33.814,0-61.224,27.409-61.224,61.224s27.409,61.224,61.224,61.224c4.805,0,9.514-0.659,14.033-1.695l98.053,160.124
			c11.491-10.455,25.903-17.896,41.821-20.91L309.255,149.144z M257.262,139.631c-12.527,0-22.794-10.173-22.794-22.794
			c0-12.527,10.172-22.794,22.794-22.794c12.527,0,22.794,10.173,22.794,22.794C280.056,129.364,269.884,139.631,257.262,139.631z"
			/>
	</g>
</g>
</svg>
