<?xml version="1.0" encoding="utf-8"?>
<!-- Generator: Adobe Illustrator 16.0.0, SVG Export Plug-In . SVG Version: 6.00 Build 0)  -->
<!DOCTYPE svg PUBLIC "-//W3C//DTD SVG 1.1//EN" "http://www.w3.org/Graphics/SVG/1.1/DTD/svg11.dtd">
<svg version="1.1" id="Capa_1" xmlns="http://www.w3.org/2000/svg" xmlns:xlink="http://www.w3.org/1999/xlink" x="0px" y="0px"
	 width="512px" height="512px" viewBox="0 0 512 512" enable-background="new 0 0 512 512" xml:space="preserve">
<g>
	<g>
		<path fill="#FFFFFF" stroke="#FFFFFF" stroke-width="6" stroke-miterlimit="10" d="M256,28
			c-85.333,0-154.758,69.424-154.758,154.758c0,34.29,20.188,86.441,63.535,164.119c29.58,53.004,59.021,97.77,60.264,99.656
			l21.28,32.256c2.146,3.254,5.78,5.211,9.679,5.211c3.899,0,7.534-1.957,9.68-5.211l21.277-32.254
			c1.23-1.863,30.459-46.246,60.266-99.658c43.348-77.674,63.535-129.825,63.535-164.12C410.758,97.424,341.332,28,256,28z
			 M326.973,335.576c-29.393,52.666-58.156,96.35-59.369,98.186L256,451.35l-11.6-17.582c-1.219-1.852-30.205-45.928-59.373-98.191
			c-40.209-72.053-60.596-123.469-60.596-152.817c0-72.546,59.021-131.567,131.568-131.567c72.547,0,131.567,59.021,131.567,131.567
			C387.566,212.11,367.18,263.523,326.973,335.576z"/>
		<path fill="#FFFFFF" stroke="#FFFFFF" stroke-width="6" stroke-miterlimit="10" d="M256,95.986
			c-47.313,0-85.805,38.493-85.805,85.805s38.492,85.806,85.805,85.806c47.313,0,85.805-38.494,85.805-85.806
			S303.313,95.986,256,95.986z M256,244.405c-34.525,0-62.613-28.088-62.613-62.614s28.088-62.615,62.613-62.615
			c34.528,0,62.614,28.088,62.614,62.615C318.613,216.317,290.527,244.405,256,244.405z"/>
	</g>
</g>
</svg>
