<?xml version="1.0" encoding="utf-8"?>
<!-- Generator: Adobe Illustrator 16.0.0, SVG Export Plug-In . SVG Version: 6.00 Build 0)  -->
<!DOCTYPE svg PUBLIC "-//W3C//DTD SVG 1.1//EN" "http://www.w3.org/Graphics/SVG/1.1/DTD/svg11.dtd">
<svg version="1.1" id="Capa_1" xmlns="http://www.w3.org/2000/svg" xmlns:xlink="http://www.w3.org/1999/xlink" x="0px" y="0px"
	 width="512px" height="512px" viewBox="0 0 512 512" enable-background="new 0 0 512 512" xml:space="preserve">
<g>
	<g>
		<path fill="#FFFFFF" d="M261.127,36.499c-85.333,0-154.758,69.424-154.758,154.758c0,34.29,20.188,86.441,63.535,164.119
			c29.58,53.003,59.022,97.77,60.264,99.656l21.28,32.256c2.146,3.254,5.781,5.211,9.679,5.211c3.898,0,7.534-1.957,9.679-5.211
			l21.279-32.254c1.229-1.864,30.459-46.246,60.265-99.658c43.347-77.674,63.536-129.825,63.536-164.12
			C415.886,105.923,346.46,36.499,261.127,36.499z M332.1,344.074c-29.392,52.666-58.157,96.351-59.37,98.187l-11.603,17.587
			l-11.599-17.582c-1.219-1.851-30.206-45.927-59.374-98.191c-40.208-72.054-60.595-123.469-60.595-152.817
			c0-72.546,59.021-131.567,131.568-131.567c72.547,0,131.567,59.021,131.567,131.567
			C392.694,220.609,372.308,272.022,332.1,344.074z"/>
		<path fill="#FFFFFF" d="M261.127,104.485c-47.313,0-85.805,38.493-85.805,85.805c0,47.312,38.492,85.805,85.805,85.805
			c47.313,0,85.805-38.493,85.805-85.805C346.932,142.978,308.439,104.485,261.127,104.485z M261.127,252.904
			c-34.526,0-62.614-28.088-62.614-62.614c0-34.526,28.088-62.615,62.614-62.615c34.527,0,62.614,28.088,62.614,62.615
			C323.741,224.816,295.654,252.904,261.127,252.904z"/>
	</g>
</g>
</svg>
