<?xml version="1.0" encoding="utf-8"?>
<!-- Generator: Adobe Illustrator 16.0.0, SVG Export Plug-In . SVG Version: 6.00 Build 0)  -->
<!DOCTYPE svg PUBLIC "-//W3C//DTD SVG 1.1//EN" "http://www.w3.org/Graphics/SVG/1.1/DTD/svg11.dtd">
<svg version="1.1" id="Capa_1" xmlns="http://www.w3.org/2000/svg" xmlns:xlink="http://www.w3.org/1999/xlink" x="0px" y="0px"
	 width="512px" height="512px" viewBox="0 0 512 512" enable-background="new 0 0 512 512" xml:space="preserve">
<g>
	<g>
		<path fill="#FFFFFF" d="M468.033,204.322l-33.551-5.691c-3.495-11.284-7.989-22.167-13.48-32.552l19.771-27.659
			c8.389-11.783,7.09-27.859-3.195-38.044l-29.756-29.757c-5.592-5.591-12.98-8.687-20.869-8.687c-6.19,0-12.082,1.896-17.075,5.492
			l-27.758,19.771c-10.785-5.692-22.068-10.385-33.751-13.88l-5.592-33.151C300.379,25.885,288.098,15.5,273.619,15.5h-42.039
			c-14.479,0-26.76,10.385-29.157,24.664l-5.792,33.95c-11.184,3.495-22.068,8.088-32.452,13.68l-27.46-19.771
			c-4.993-3.595-10.984-5.492-17.174-5.492c-7.889,0-15.377,3.096-20.87,8.687L68.82,100.974
			c-10.185,10.185-11.583,26.262-3.195,38.044l19.97,28.059c-5.492,10.485-9.885,21.369-13.28,32.652l-33.151,5.591
			C24.885,207.717,14.5,220,14.5,234.478v42.039c0,14.479,10.385,26.76,24.664,29.156l33.95,5.791
			c3.495,11.184,8.088,22.067,13.68,32.453l-19.671,27.359c-8.388,11.783-7.089,27.859,3.195,38.044l29.757,29.757
			c5.591,5.592,12.98,8.688,20.869,8.688c6.191,0,12.083-1.896,17.075-5.492l28.059-19.971c10.085,5.293,20.669,9.586,31.554,12.98
			l5.592,33.552c2.396,14.277,14.678,24.663,29.157,24.663h42.138c14.479,0,26.761-10.385,29.157-24.663l5.691-33.552
			c11.283-3.495,22.167-7.988,32.553-13.479l27.658,19.771c4.994,3.595,10.984,5.492,17.175,5.492l0,0
			c7.89,0,15.278-3.095,20.87-8.688l29.755-29.755c10.187-10.186,11.584-26.262,3.196-38.044l-19.771-27.76
			c5.491-10.484,10.085-21.369,13.479-32.552l33.552-5.593c14.277-2.396,24.663-14.679,24.663-29.156v-42.038
			C492.697,219.001,482.312,206.719,468.033,204.322z M465.736,275.518c0,1.298-0.898,2.396-2.196,2.597l-41.938,6.989
			c-5.293,0.898-9.486,4.793-10.785,9.886c-3.795,14.678-9.585,28.758-17.374,41.839c-2.695,4.593-2.496,10.284,0.599,14.677
			l24.664,34.75c0.699,0.998,0.6,2.497-0.299,3.395l-29.757,29.757c-0.698,0.698-1.397,0.799-1.897,0.799
			c-0.599,0-1.098-0.2-1.497-0.5l-34.649-24.664c-4.294-3.095-10.085-3.294-14.679-0.599c-13.08,7.789-27.16,13.579-41.838,17.374
			c-5.192,1.299-9.086,5.594-9.886,10.785l-7.09,41.938c-0.199,1.298-1.299,2.196-2.596,2.196h-42.038
			c-1.298,0-2.396-0.898-2.596-2.196l-6.99-41.938c-0.899-5.293-4.793-9.486-9.885-10.785c-14.279-3.693-28.059-9.386-40.94-16.775
			c-2.097-1.197-4.493-1.797-6.79-1.797c-2.696,0-5.492,0.799-7.788,2.496l-34.949,24.864c-0.499,0.3-0.999,0.499-1.498,0.499
			c-0.399,0-1.198-0.101-1.897-0.799L89.39,390.549c-0.899-0.899-0.999-2.297-0.3-3.396l24.564-34.449
			c3.095-4.394,3.295-10.185,0.599-14.778c-7.789-12.98-13.78-27.06-17.574-41.739c-1.398-5.092-5.591-8.986-10.784-9.885
			l-42.238-7.189c-1.298-0.199-2.197-1.298-2.197-2.596v-42.039c0-1.298,0.899-2.396,2.197-2.596l41.639-6.99
			c5.292-0.898,9.586-4.793,10.884-9.985c3.695-14.678,9.386-28.858,17.075-41.938c2.696-4.593,2.396-10.285-0.699-14.579
			l-24.863-34.948c-0.699-0.999-0.599-2.496,0.3-3.396l29.756-29.756c0.699-0.699,1.398-0.799,1.897-0.799
			c0.599,0,1.098,0.2,1.498,0.5l34.45,24.563c4.394,3.096,10.185,3.295,14.778,0.599c12.981-7.788,27.06-13.78,41.738-17.574
			c5.093-1.397,8.987-5.591,9.885-10.784l7.189-42.238c0.2-1.297,1.298-2.197,2.596-2.197h42.038c1.299,0,2.396,0.899,2.597,2.197
			l6.989,41.639c0.898,5.292,4.794,9.586,9.985,10.884c15.078,3.794,29.457,9.686,42.838,17.574
			c4.593,2.696,10.284,2.497,14.678-0.599l34.449-24.764c0.5-0.299,0.998-0.499,1.498-0.499c0.399,0,1.198,0.1,1.896,0.799
			l29.757,29.756c0.898,0.898,0.998,2.296,0.3,3.395l-24.664,34.648c-3.096,4.293-3.295,10.085-0.599,14.678
			c7.789,13.082,13.58,27.16,17.374,41.839c1.298,5.192,5.592,9.086,10.784,9.885l41.938,7.09c1.297,0.2,2.196,1.298,2.196,2.596
			v42.038H465.736z"/>
		<path fill="#FFFFFF" d="M253.548,151.301c-56.916,0-103.147,46.231-103.147,103.147s46.231,103.149,103.147,103.149
			s103.148-46.233,103.148-103.149S310.464,151.301,253.548,151.301z M253.548,330.637c-42.038,0-76.187-34.149-76.187-76.188
			c0-42.038,34.149-76.188,76.187-76.188c42.038,0,76.188,34.149,76.188,76.188C329.736,296.487,295.586,330.637,253.548,330.637z"
			/>
	</g>
</g>
</svg>
