<?xml version="1.0" encoding="utf-8"?>
<!-- Generator: Adobe Illustrator 16.0.0, SVG Export Plug-In . SVG Version: 6.00 Build 0)  -->
<!DOCTYPE svg PUBLIC "-//W3C//DTD SVG 1.1//EN" "http://www.w3.org/Graphics/SVG/1.1/DTD/svg11.dtd">
<svg version="1.1" id="Capa_1" xmlns="http://www.w3.org/2000/svg" xmlns:xlink="http://www.w3.org/1999/xlink" x="0px" y="0px"
	 width="512px" height="512px" viewBox="0 0 512 512" enable-background="new 0 0 512 512" xml:space="preserve">
<g>
	<g>
		<path fill="#FFFFFF" d="M458.478,196.44c-3.103-1.853-6.951-1.94-10.132-0.228l-66.396,35.737v-30.625
			c0-5.671-4.599-10.269-10.268-10.269h-16.698c20.825-16.89,34.162-42.67,34.162-71.51c0.001-50.754-41.291-92.046-92.046-92.046
			c-43.321,0-79.743,30.086-89.483,70.459c-12.742-15.374-31.973-25.185-53.454-25.185c-38.274,0-69.41,31.137-69.41,69.41
			c0,19.046,7.714,36.321,20.179,48.875h-9.375c-5.671,0-10.269,4.597-10.269,10.268v46.61H59.293
			c-5.671,0-10.269,4.597-10.269,10.268v40.38c0,5.671,4.597,10.269,10.269,10.269h25.993v46.609
			c0,5.672,4.598,10.269,10.269,10.269h121.132l-55.655,106.758c-2.622,5.027-0.67,11.229,4.358,13.851
			c1.517,0.791,3.139,1.165,4.738,1.165c3.704,0,7.282-2.012,9.113-5.522l54.376-104.308l54.377,104.308
			c1.831,3.513,5.41,5.522,9.114,5.522c1.599,0,3.223-0.374,4.737-1.165c5.028-2.622,6.979-8.823,4.356-13.851l-55.654-106.758
			h121.134c5.669,0,10.268-4.597,10.268-10.269v-30.625l66.396,35.737c1.522,0.817,3.194,1.226,4.865,1.226
			c1.825,0,3.647-0.486,5.267-1.452c3.104-1.854,5.003-5.201,5.003-8.815V205.254C463.48,201.64,461.581,198.293,458.478,196.44z
			 M85.288,288.313H69.562V268.47h15.726V288.313z M297.101,48.035c39.43,0,71.511,32.08,71.511,71.512
			c0,39.431-32.08,71.51-71.511,71.51s-71.511-32.08-71.511-71.51C225.591,80.116,257.67,48.035,297.101,48.035z M218.69,167.705
			c5.484,8.898,12.441,16.794,20.527,23.352h-35.823C209.961,184.443,215.194,176.511,218.69,167.705z M154.163,93.309
			c26.949,0,48.874,21.924,48.874,48.874c0,26.95-21.925,48.875-48.874,48.875s-48.875-21.924-48.875-48.875
			C105.29,115.233,127.214,93.309,154.163,93.309z M361.414,249.137v58.51v37.545h-127.61c-0.019,0-0.038,0-0.056,0h-0.271
			c-0.011,0-0.023,0-0.035,0H105.823v-46.61v-40.379v-46.611h255.591V249.137z M442.944,334.343l-60.994-32.831v-46.241
			l60.994-32.831V334.343z"/>
	</g>
</g>
<g>
	<g>
		<path fill="#FFFFFF" d="M154.163,110.993c-17.199,0-31.19,13.992-31.19,31.189c0,17.199,13.992,31.19,31.19,31.19
			c17.199,0,31.19-13.992,31.19-31.19C185.354,124.985,171.362,110.993,154.163,110.993z M154.163,154.891
			c-7.008,0-12.708-5.701-12.708-12.709c0-7.007,5.7-12.708,12.708-12.708c7.008,0,12.708,5.701,12.708,12.708
			C166.871,149.189,161.17,154.891,154.163,154.891z"/>
	</g>
</g>
<g>
	<g>
		<path fill="#FFFFFF" d="M297.101,74.753c-24.698,0-44.793,20.094-44.793,44.794c0,24.698,20.095,44.792,44.793,44.792
			c24.699,0,44.792-20.094,44.792-44.792C341.893,94.848,321.8,74.753,297.101,74.753z M297.101,143.804
			c-13.376,0-24.257-10.882-24.257-24.257c0-13.375,10.881-24.258,24.257-24.258c13.374,0,24.257,10.882,24.257,24.258
			C321.357,132.922,310.475,143.804,297.101,143.804z"/>
	</g>
</g>
<g>
	<g>
		<path fill="#FFFFFF" d="M263.973,241.452h-111.64c-5.388,0-9.754,4.367-9.754,9.754v54.373c0,5.387,4.367,9.754,9.754,9.754
			h111.64c5.388,0,9.754-4.368,9.754-9.754v-54.373C273.727,245.819,269.36,241.452,263.973,241.452z M254.217,295.824h-92.13
			v-34.863h92.131L254.217,295.824L254.217,295.824z"/>
	</g>
</g>
<g>
	<g>
		<circle fill="#FFFFFF" cx="317.828" cy="261.474" r="10.269"/>
	</g>
</g>
<g>
	<g>
		<circle fill="#FFFFFF" cx="317.828" cy="295.306" r="10.268"/>
	</g>
</g>
</svg>
