<?xml version="1.0" encoding="utf-8"?>
<!-- Generator: Adobe Illustrator 16.0.0, SVG Export Plug-In . SVG Version: 6.00 Build 0)  -->
<!DOCTYPE svg PUBLIC "-//W3C//DTD SVG 1.1//EN" "http://www.w3.org/Graphics/SVG/1.1/DTD/svg11.dtd">
<svg version="1.1" id="Capa_1" xmlns="http://www.w3.org/2000/svg" xmlns:xlink="http://www.w3.org/1999/xlink" x="0px" y="0px"
	 width="512px" height="512px" viewBox="0 0 512 512" enable-background="new 0 0 512 512" xml:space="preserve">
<path fill="#FFFFFF" d="M256,0C114.836,0,0,114.836,0,256c0,141.164,114.836,256,256,256c141.164,0,256-114.836,256-256
	C512,114.836,397.164,0,256,0z M256,492.307C125.707,492.307,19.693,386.293,19.693,256C19.693,125.706,125.707,19.692,256,19.692
	c130.294,0,236.308,106.014,236.308,236.308C492.309,386.293,386.295,492.307,256,492.307z"/>
<path fill="#FFFFFF" d="M213.532,379.455c9.129,0,16.273-7.145,16.273-16.273V152.429c0-9.129-7.144-16.273-16.273-16.273
	c-9.128,0-16.273,7.144-16.273,16.273v210.753C197.259,372.311,204.404,379.455,213.532,379.455z"/>
<path fill="#FFFFFF" d="M298.469,379.455c9.129,0,16.273-7.145,16.273-16.273V152.429c0-9.129-7.145-16.273-16.273-16.273
	s-16.273,7.144-16.273,16.273v210.753C282.195,372.311,289.34,379.455,298.469,379.455z"/>
</svg>
