<svg id="Layouts" xmlns="http://www.w3.org/2000/svg" viewBox="0 0 80 71.61"><defs><style>.cls-1{opacity:0.54;}.cls-2{fill:#fff;}.cls-3{fill:#231f20;}.cls-4{fill:#e9142b;}</style></defs><title>stop_botton</title><polygon class="cls-2" points="59.23 71 20.2 71 0.69 35.8 20.2 0.61 58.77 0.61 59 0.61 79.31 35.8 59.23 71"/><path class="cls-3" d="M59.33,71.16H20.11l0-.08L0.5,35.8l0-.08L20.11,0.45h39l0,0.08L79.5,35.8l0,0.08Zm-39-.33H59.14l20-35L58.9,0.77H20.3L0.88,35.8Z"/><path class="cls-4" d="M61.62,34.6a2.4,2.4,0,0,0,.87-0.31,1.68,1.68,0,0,0,.61-0.65,2.73,2.73,0,0,0,0-2.18,1.68,1.68,0,0,0-.61-0.65,2.42,2.42,0,0,0-.87-0.31,6.54,6.54,0,0,0-1-.08H58.16v4.25h2.42A6.51,6.51,0,0,0,61.62,34.6Z"/><path class="cls-4" d="M48.93,31.79a3.38,3.38,0,0,0-1.19-1.09,4.13,4.13,0,0,0-3.57,0A3.39,3.39,0,0,0,43,31.79a4.79,4.79,0,0,0-.66,1.56,7.73,7.73,0,0,0-.21,1.81,7.19,7.19,0,0,0,.21,1.74A4.68,4.68,0,0,0,43,38.41a3.39,3.39,0,0,0,1.19,1.08,4.13,4.13,0,0,0,3.57,0,3.39,3.39,0,0,0,1.19-1.08,4.68,4.68,0,0,0,.67-1.52,7.24,7.24,0,0,0,.21-1.74,7.79,7.79,0,0,0-.21-1.81A4.82,4.82,0,0,0,48.93,31.79Z"/><path class="cls-4" d="M23.51,6.68L7,35.8,23.51,64.93h33.1L73.16,35.8,56.61,6.68H23.51Zm1.73,33.1a3.92,3.92,0,0,1-1.12,1.44,5.4,5.4,0,0,1-1.85.94,8.73,8.73,0,0,1-2.55.34,9,9,0,0,1-2.27-.29,5.74,5.74,0,0,1-1.95-.9,4.45,4.45,0,0,1-1.34-1.57,4.68,4.68,0,0,1-.48-2.26h3A2.6,2.6,0,0,0,17,38.69a2.25,2.25,0,0,0,.69.8,3,3,0,0,0,1,.46,4.73,4.73,0,0,0,1.19.15A6.22,6.22,0,0,0,20.73,40a3.13,3.13,0,0,0,.89-0.27,1.93,1.93,0,0,0,.7-0.55,1.37,1.37,0,0,0,.28-0.88,1.24,1.24,0,0,0-.37-0.93,2.93,2.93,0,0,0-1-.6,9.62,9.62,0,0,0-1.35-.42q-0.75-.18-1.53-0.4a13.45,13.45,0,0,1-1.55-.49,5.31,5.31,0,0,1-1.35-.74,3.5,3.5,0,0,1-1-1.14A3.45,3.45,0,0,1,14.16,32a3.71,3.71,0,0,1,.47-1.9,4.22,4.22,0,0,1,1.22-1.34,5.32,5.32,0,0,1,1.71-.79,7.26,7.26,0,0,1,1.91-.26,9,9,0,0,1,2.13.25,5.32,5.32,0,0,1,1.82.8,4.06,4.06,0,0,1,1.26,1.42,4.36,4.36,0,0,1,.47,2.09h-3a2.52,2.52,0,0,0-.27-1.05,1.75,1.75,0,0,0-.61-0.66,2.59,2.59,0,0,0-.86-0.34,5.32,5.32,0,0,0-1.06-.1,3.7,3.7,0,0,0-.75.08,2,2,0,0,0-.69.28,1.73,1.73,0,0,0-.51.5,1.34,1.34,0,0,0-.2.76,1.27,1.27,0,0,0,.16.68,1.42,1.42,0,0,0,.63.48,8,8,0,0,0,1.29.44l2.15,0.56q0.4,0.08,1.1.29a5.29,5.29,0,0,1,1.4.67A4.24,4.24,0,0,1,25.11,36a3.48,3.48,0,0,1,.51,2A4.32,4.32,0,0,1,25.24,39.78ZM38,30.63H33.72V42.18H30.6V30.63H26.35V28H38v2.62h0ZM52.44,38a6.9,6.9,0,0,1-1.37,2.33,6.3,6.3,0,0,1-2.18,1.56,7.89,7.89,0,0,1-5.87,0,6.27,6.27,0,0,1-2.19-1.56A6.93,6.93,0,0,1,39.46,38,8.57,8.57,0,0,1,39,35.15a8.84,8.84,0,0,1,.48-2.95,7.1,7.1,0,0,1,1.37-2.37A6.27,6.27,0,0,1,43,28.24a7.76,7.76,0,0,1,5.87,0,6.3,6.3,0,0,1,2.18,1.59,7.1,7.1,0,0,1,1.37,2.37,8.86,8.86,0,0,1,.48,2.95A8.55,8.55,0,0,1,52.44,38ZM63.7,28.39a4.24,4.24,0,0,1,1.52,1,4,4,0,0,1,.85,1.45,5.43,5.43,0,0,1,0,3.37,3.93,3.93,0,0,1-.85,1.46,4.23,4.23,0,0,1-1.52,1,5.9,5.9,0,0,1-2.26.39H58.16v5.08H55V28h6.39A5.91,5.91,0,0,1,63.7,28.39Z"/></svg>