<svg id="Layer_1" data-name="Layer 1" xmlns="http://www.w3.org/2000/svg" viewBox="0 0 520 520.03"><defs><style>.cls-1{fill:#dee2e2;}.cls-2{fill:#888;}.cls-3{fill:#082344;}.cls-4{fill:#009fdd;}.cls-5{fill:#005983;}</style></defs><title>Assets</title><path class="cls-1" d="M517.84,260.28C517.84,118,402.53,2.73,260.3,2.73S2.75,118,2.75,260.28a256.74,256.74,0,0,0,76.32,183H441.52a256.75,256.75,0,0,0,76.32-183"/><path class="cls-2" d="M441.52,443.26H79.07a257.51,257.51,0,0,0,362.45,0"/><path class="cls-3" d="M276.48,487.75c0,3.09-7.24,5.6-16.18,5.6s-16.18-2.51-16.18-5.6,7.24-5.6,16.18-5.6,16.18,2.51,16.18,5.6"/><path class="cls-4" d="M126,322.08c4.24,6.68,6.24,10.23,6.24,13.93,0,7.31-5.43,10.85-12.74,10.85-3.22,0-5.3,0-10.56-2.74,0,0-3.41-3.12-11.38-2.8-8-.32-11.46,2.84-11.46,2.84-5.26,2.73-7.26,2.71-10.48,2.71-7.31,0-12.75-3.54-12.75-10.85,0-3.7,2-7.24,6.25-13.93,0,0,8-13.32,15-19.58,5-4.52,12.34-4.5,12.34-4.5h2.26s7.64,0,12.35,4.51c6.73,6.49,15,19.58,15,19.58m-46.31-33c7.65,0,13.84-9.66,13.84-21.57S87.38,246,79.73,246s-13.84,9.66-13.84,21.57,6.2,21.57,13.84,21.57M66.47,310c5.64-2.6,6.92-11.83,2.87-20.6S57.43,275.6,51.8,278.2,44.88,290,48.93,298.8,60.83,312.58,66.47,310m45.45-20.89c7.65,0,13.84-9.66,13.84-21.57S119.56,246,111.91,246s-13.84,9.66-13.84,21.57,6.2,21.57,13.84,21.57m27.94-10.9c-5.64-2.6-13.49,2.41-17.54,11.19s-2.77,18,2.87,20.6,13.49-2.41,17.54-11.19,2.77-18-2.87-20.61"/><path class="cls-4" d="M413.49,304h64.67A15.19,15.19,0,0,0,463,288.82H428.68A15.2,15.2,0,0,0,413.49,304"/><path class="cls-4" d="M428.68,344.46H463a15.18,15.18,0,0,0,15.19-15.19H413.49a15.2,15.2,0,0,0,15.2,15.19"/><path class="cls-4" d="M473.2,311.6H418.44a5.2,5.2,0,1,0,0,10.4H473.2a5.2,5.2,0,0,0,0-10.4"/><polygon class="cls-4" points="448.65 243.75 383.92 243.75 378.49 256.37 454.01 256.37 448.65 243.75"/><path class="cls-4" d="M409.42,325.19h5.35a9.16,9.16,0,0,1-5.51-8.47A9.26,9.26,0,0,1,415.4,308h-6v-4.07a19.28,19.28,0,0,1,19.27-19.27H447.6l2.55-24.39H382.3l8.86,84.16h25.66c-9.56-7.57-7.4-19.25-7.4-19.25"/><path class="cls-4" d="M127.46,149.24v48.19a6.9,6.9,0,0,0,6.9,6.9h11.89v-62H134.36a6.9,6.9,0,0,0-6.9,6.9"/><path class="cls-4" d="M220.36,160.52a4,4,0,0,0,0-5.59l-4-4a1.49,1.49,0,0,1,0-2.11l3.6-3.6a1.72,1.72,0,0,0-1.21-2.93h-61v62h61a1.72,1.72,0,0,0,1.21-2.93l-3.6-3.6a1.49,1.49,0,0,1,0-2.11l4-4a4,4,0,0,0,0-5.59l-4-4a1.49,1.49,0,0,1,0-2.11l4-4a4,4,0,0,0,0-5.59l-4-4a1.49,1.49,0,0,1,0-2.11Z"/><path class="cls-4" d="M245,141.75l-4.83-1.61a1.49,1.49,0,0,1-.94-1.89l1.77-5.31a4,4,0,0,0-2.5-5l-5.31-1.77a1.49,1.49,0,0,1-.94-1.89L234,119a4,4,0,0,0-2.49-5l-5.31-1.77a1.49,1.49,0,0,1-.94-1.89L227,105a4,4,0,0,0-2.49-5l-5.31-1.77a1.49,1.49,0,0,1-.94-1.89l1.61-4.83a1.72,1.72,0,0,0-2.39-2.08l-54.61,27.26,9.35,18.73h46.56a8.62,8.62,0,0,1,6.31,14.48l0.14,0.13a10.8,10.8,0,0,1,2.39,3.62l17.55-8.76a1.72,1.72,0,0,0-.22-3.16"/><path class="cls-4" d="M159.37,135.44l-6.79-13.59L142,127.15a6.9,6.9,0,0,0-3.48,8.28h20.9Z"/><path class="cls-4" d="M302.37,127.14a12.83,12.83,0,0,0-3.93,9.4V186a13.41,13.41,0,0,0,13.33,13.33h1.9V123.21h-1.9a12.82,12.82,0,0,0-9.4,3.93"/><path class="cls-4" d="M374.59,113.7a5.69,5.69,0,0,0-5.71-5.71H334.61a5.69,5.69,0,0,0-5.71,5.71v9.52h-9.52v76.15H384.1V123.21h-9.52V113.7Zm-38.07,1.9H367v7.61H336.51V115.6ZM374.59,167a1.83,1.83,0,0,1-1.9,1.9H359.36v13.32a1.83,1.83,0,0,1-1.9,1.9H346a1.83,1.83,0,0,1-1.9-1.9V168.9H330.8a1.83,1.83,0,0,1-1.9-1.9V155.58a1.83,1.83,0,0,1,1.9-1.9h13.33V140.35a1.83,1.83,0,0,1,1.9-1.9h11.42a1.83,1.83,0,0,1,1.9,1.9v13.33h13.33a1.83,1.83,0,0,1,1.9,1.9V167h0Z"/><path class="cls-4" d="M401.12,127.14a12.83,12.83,0,0,0-9.4-3.93h-1.9v76.15h1.9A13.4,13.4,0,0,0,405,186V136.54a12.83,12.83,0,0,0-3.93-9.4"/><path class="cls-5" d="M260.3,260.49a87.2,87.2,0,0,0-87.1,87.1c0,47.38,82.72,134.81,86.24,138.51a1.2,1.2,0,0,0,1.72,0c3.52-3.7,86.24-91.12,86.24-138.51a87.2,87.2,0,0,0-87.1-87.1m0,33.61a48.69,48.69,0,1,1-48.68,48.69A48.75,48.75,0,0,1,260.3,294.1"/></svg>