<?xml version="1.0" encoding="utf-8"?>
<!-- Generator: Adobe Illustrator 16.0.0, SVG Export Plug-In . SVG Version: 6.00 Build 0)  -->
<!DOCTYPE svg PUBLIC "-//W3C//DTD SVG 1.1//EN" "http://www.w3.org/Graphics/SVG/1.1/DTD/svg11.dtd">
<svg version="1.1" id="Layer_1" xmlns="http://www.w3.org/2000/svg" xmlns:xlink="http://www.w3.org/1999/xlink" x="0px" y="0px"
	 width="1024px" height="1024px" viewBox="0 0 1024 1024" enable-background="new 0 0 1024 1024" xml:space="preserve">
<title>Assets</title>
<path fill="#DEE2E2" d="M1019.717,512.521c0-280.167-227.059-507.146-507.126-507.146C232.524,5.375,5.445,232.356,5.445,512.521
	C5.265,647.916,59.401,777.725,155.728,872.87h713.707C965.759,777.723,1019.895,647.915,1019.717,512.521"/>
<path fill="#888888" d="M869.434,872.831H155.728C353.355,1068.601,671.807,1068.601,869.434,872.831"/>
<path fill="#082344" d="M544.451,960.438c0,6.085-14.257,11.026-31.86,11.026c-17.603,0-31.859-4.942-31.859-11.026
	s14.257-11.026,31.859-11.026C530.194,949.411,544.451,954.354,544.451,960.438"/>
<path fill="#3EB4E6" d="M248.138,634.213c8.349,13.154,12.288,20.146,12.288,27.43c0,14.396-10.692,21.365-25.087,21.365
	c-6.34,0-10.436,0-20.793-5.396c0,0-6.715-6.145-22.409-5.515c-15.753-0.63-22.566,5.594-22.566,5.594
	c-10.357,5.376-14.295,5.336-20.636,5.336c-14.394,0-25.106-6.972-25.106-21.364c0-7.286,3.938-14.257,12.307-27.431
	c0,0,15.753-26.229,29.537-38.556c9.845-8.899,24.299-8.86,24.299-8.86h4.45c0,0,15.044,0,24.318,8.881
	c13.252,12.778,29.537,38.556,29.537,38.556 M157.085,569.271c15.063,0,27.252-19.021,27.252-42.475s-12.248-42.396-27.312-42.396
	s-27.252,19.021-27.252,42.475s12.208,42.474,27.252,42.474 M130.917,610.426c11.105-5.119,13.626-23.294,5.651-40.563
	c-7.975-17.27-23.452-27.174-34.539-22.055c-11.086,5.119-13.626,23.235-5.651,40.563S119.811,615.507,130.917,610.426
	 M220.413,569.291c15.064,0,27.252-19.021,27.252-42.474c0-23.453-12.208-42.415-27.272-42.415s-27.252,19.021-27.252,42.475
	s12.208,42.474,27.252,42.474 M275.411,547.887c-11.106-5.119-26.563,4.746-34.539,22.035c-7.975,17.289-5.454,35.443,5.651,40.563
	c11.106,5.12,26.563-4.745,34.539-22.034s5.455-35.444-5.651-40.584 M814.24,598.611h127.342
	c-0.012-16.488-13.363-29.858-29.852-29.892h-67.58C827.645,568.731,814.262,582.104,814.24,598.611 M844.15,678.282h67.58
	c16.508,0.011,29.898-13.363,29.91-29.872c0-0.014,0-0.025,0-0.039h-127.4c0.01,16.521,13.406,29.911,29.93,29.911 M931.814,613.577
	H823.986c-5.654-0.006-10.244,4.573-10.25,10.229c-0.006,5.656,4.574,10.244,10.229,10.25c0.008,0,0.016,0,0.021,0h107.828
	c5.654-0.006,10.234-4.595,10.229-10.25C942.039,618.159,937.463,613.583,931.814,613.577 M883.473,479.973H756.012l-10.691,24.851
	h148.709L883.473,479.973z"/>
<path fill="#3EB4E6" d="M806.226,640.337h10.534c-6.633-2.881-10.902-9.446-10.85-16.678c-0.001-7.703,4.838-14.576,12.091-17.171
	h-11.813v-8.016c0.011-20.952,16.992-37.934,37.943-37.943h37.275l5.021-48.027H752.823l17.445,165.721h50.527
	c-18.824-14.905-14.571-37.904-14.571-37.904 M251.013,293.871v94.892c0,7.503,6.083,13.586,13.587,13.586h23.413V280.265H264.6
	c-7.504,0-13.587,6.083-13.587,13.587 M433.944,316.083c2.988-3.06,2.988-7.947,0-11.007l-7.877-7.876
	c-1.147-1.144-1.149-3.002-0.005-4.149c0.002-0.002,0.004-0.004,0.005-0.006l7.089-7.089c1.315-1.329,1.306-3.474-0.024-4.79
	c-0.628-0.622-1.474-0.974-2.357-0.98H310.658v122.085h120.115c1.87-0.014,3.376-1.54,3.362-3.411
	c-0.007-0.885-0.357-1.729-0.979-2.358l-7.089-7.088c-1.147-1.144-1.149-3.002-0.005-4.149c0.002-0.001,0.004-0.003,0.005-0.005
	l7.877-7.876c2.988-3.061,2.988-7.947,0-11.007l-7.877-7.876c-1.147-1.145-1.149-3.002-0.005-4.149
	c0.002-0.002,0.004-0.003,0.005-0.005l7.877-7.876c2.988-3.061,2.988-7.947,0-11.007l-7.877-7.876
	c-1.147-1.145-1.149-3.002-0.005-4.149c0.002-0.002,0.004-0.004,0.005-0.005L433.944,316.083z"/>
<path fill="#3EB4E6" d="M482.463,279.122l-9.511-3.17c-1.537-0.513-2.367-2.175-1.854-3.712c0.002-0.003,0.003-0.007,0.004-0.01
	l3.485-10.456c1.305-4.074-0.881-8.445-4.923-9.846l-10.456-3.485c-1.537-0.513-2.367-2.175-1.854-3.712
	c0.002-0.003,0.003-0.006,0.005-0.01l3.444-10.396c1.309-4.069-0.868-8.438-4.902-9.846l-10.456-3.485
	c-1.536-0.513-2.367-2.175-1.854-3.712c0.001-0.003,0.002-0.007,0.003-0.01l3.427-10.515c1.308-4.069-0.868-8.437-4.902-9.846
	l-10.456-3.485c-1.537-0.513-2.367-2.175-1.854-3.712c0.001-0.003,0.002-0.006,0.003-0.01l3.171-9.511
	c0.582-1.778-0.389-3.69-2.165-4.272c-0.839-0.274-1.749-0.21-2.54,0.176l-107.534,53.678l18.411,36.881h91.683
	c9.374,0.013,16.964,7.623,16.95,16.997c-0.006,4.271-1.621,8.383-4.525,11.516l0.276,0.256c2.034,2.033,3.636,4.458,4.706,7.128
	l34.558-17.25c1.668-0.847,2.333-2.886,1.485-4.553c-0.398-0.785-1.086-1.383-1.918-1.669 M313.848,266.697l-13.37-26.76
	l-20.833,10.436c-5.993,3.001-8.902,9.923-6.853,16.305h41.155L313.848,266.697z M595.432,250.354
	c-5.022,4.837-7.823,11.536-7.737,18.51v97.393c0.086,14.461,11.787,26.162,26.248,26.248h3.74v-149.89h-3.74
	C606.967,242.527,600.268,245.328,595.432,250.354 M737.641,223.889c0.022-6.188-4.977-11.222-11.164-11.244
	c-0.025,0-0.053,0-0.078,0h-67.481c-6.188-0.022-11.222,4.977-11.244,11.165c0,0.026,0,0.053,0,0.079v18.746h-18.746v149.948
	h127.441V242.615h-18.746v-18.726H737.641z M662.677,227.63h60.02v14.985h-60.038V227.63H662.677z M737.641,328.843
	c0.078,1.988-1.471,3.664-3.46,3.741c-0.094,0.003-0.188,0.003-0.28,0h-26.248v26.229c0.078,1.989-1.473,3.664-3.46,3.741
	c-0.095,0.004-0.188,0.004-0.281,0h-22.566c-1.987,0.078-3.663-1.472-3.741-3.46c-0.003-0.094-0.003-0.188,0-0.281v-26.229h-26.188
	c-1.989,0.078-3.664-1.472-3.742-3.46c-0.003-0.093-0.003-0.188,0-0.281v-22.487c-0.077-1.989,1.472-3.664,3.461-3.742
	c0.094-0.003,0.188-0.003,0.281,0h26.248v-26.248c-0.078-1.989,1.472-3.664,3.46-3.742c0.094-0.003,0.188-0.003,0.281,0h22.486
	c1.988-0.077,3.664,1.472,3.741,3.46c0.004,0.094,0.004,0.188,0,0.281v26.248h26.248c1.989-0.078,3.664,1.472,3.741,3.46
	c0.004,0.094,0.004,0.188,0,0.281v22.487h0.019V328.843z M789.882,250.354c-4.837-5.024-11.536-7.824-18.51-7.739h-3.741v149.948
	h3.741c14.45-0.129,26.106-11.857,26.149-26.307v-97.393c0.086-6.974-2.716-13.672-7.738-18.51"/>
<path fill="#02528A" d="M512.591,512.936c-94.678,0.108-171.4,76.832-171.511,171.511c0,93.297,162.886,265.457,169.817,272.741
	c0.909,0.937,2.405,0.956,3.341,0.047c0.016-0.016,0.031-0.03,0.046-0.047c6.932-7.284,169.815-179.426,169.815-272.741
	C683.992,589.768,607.268,513.044,512.591,512.936 M512.591,579.117c52.951-0.011,95.885,42.904,95.896,95.855
	s-42.905,95.887-95.856,95.896s-95.885-42.905-95.896-95.856c0-0.007,0-0.014,0-0.021
	C416.799,622.077,459.674,579.193,512.591,579.117"/>
</svg>
