<?xml version="1.0" encoding="utf-8"?>
<!-- Generator: Adobe Illustrator 16.0.0, SVG Export Plug-In . SVG Version: 6.00 Build 0)  -->
<!DOCTYPE svg PUBLIC "-//W3C//DTD SVG 1.1//EN" "http://www.w3.org/Graphics/SVG/1.1/DTD/svg11.dtd">
<svg version="1.1" id="Layouts" xmlns="http://www.w3.org/2000/svg" xmlns:xlink="http://www.w3.org/1999/xlink" x="0px" y="0px"
	 width="1024px" height="1024px" viewBox="0 0 1024 1024" enable-background="new 0 0 1024 1024" xml:space="preserve">
<title>walkthrough_3</title>
<g>
	<defs>
		<circle id="SVGID_1_" cx="512" cy="512" r="512"/>
	</defs>
	<clipPath id="SVGID_2_">
		<use xlink:href="#SVGID_1_"  overflow="visible"/>
	</clipPath>
	<path clip-path="url(#SVGID_2_)" fill="#3EB4E6" d="M214.434,398.543L-191.115-6.569L-249.05,6.063V1113.37l54.015-12.196
		l409.469-409.467V398.543z M-7.725,1059.791l222.159-49.659V837.634L-7.725,1059.791z M214.434-96.74L-71.759-33.142
		l286.192,286.192V-96.74z M1024.224-117.649L652.217,6.063v248.294L1024.224-117.649z M652.217,399.85v687.819l463.047-180.34
		V-63.634L652.217,399.85z"/>
	<path clip-path="url(#SVGID_2_)" fill="#02528A" d="M437.027,472.595l215.625-220.851L650.037,3.45L210.949-94.126l4.356,349.791
		L437.027,472.595z M214.434,398.543v293.164l146.363-146.365L214.434,398.543z M214.434,837.634v172.498l437.783,77.537V399.85
		L214.434,837.634z"/>
	<path clip-path="url(#SVGID_2_)" fill="#AFB3B4" d="M214.434,253.051L-71.759-33.142L-191.115-6.569l405.548,405.112V253.051z
		 M214.434,691.707l-409.469,409.467l187.31-41.383l222.159-222.157V691.707z M652.217,399.85l463.047-463.483v-84.507
		l-91.04,30.493L652.217,254.357V399.85z"/>
	<path clip-path="url(#SVGID_2_)" fill="#AFB3B4" d="M433.979,472.595L214.434,253.051v145.492l146.363,146.799L214.434,691.707
		v145.927L652.217,399.85V254.357L433.979,472.595z"/>
	<path clip-path="url(#SVGID_2_)" fill="#FFFDFD" d="M626.517,852.443H435.721L340.323,687.35l95.397-165.096h190.796
		l95.396,165.096L626.517,852.443z M461.422,808.884h140.265l70.132-121.534l-70.132-121.533H461.422L391.29,687.35L461.422,808.884
		z"/>
	<path clip-path="url(#SVGID_2_)" fill="#3EB4E6" d="M614.318,545.342l82.329,143.313L614.318,831.97H448.789l-82.765-143.314
		l82.765-143.313H614.318z"/>
	<g clip-path="url(#SVGID_2_)">
		<path fill="#02528A" d="M505.66,634.422c-4.189,0.152-7.535,1.992-10.035,5.521l-16.352,24.474
			c-0.07,0.248-0.442,0.815-1.115,1.698c-0.672,0.851-1.521,1.328-2.548,1.435c-1.38,0.142-2.53-0.62-3.45-2.283l-16.352-25.217
			c-1.982-3.398-6.495-5.398-13.538-5.999h-30.102c-4.07,0.672-5.433,2.973-4.088,6.901l46.771,72.679
			c10.937,18.936,23.712,29.182,38.331,30.738c3.717-0.195,5.115-1.274,4.193-3.238c-6.512-7.998-7.168-16.404-1.965-25.217
			l14.175-22.934h-16.723c-1.345-0.106-2.177-0.603-2.495-1.488c-0.672-1.203-0.23-3.186,1.328-5.944l6.529-11.841
			c1.346-2.653,3.575-3.84,6.689-3.556h18.847l11.572-18.371c1.204-2.015,1.894-3.466,2.072-4.353
			c0.176-0.921,0.265-1.503,0.265-1.752c0.403-5.151-1.241-8.531-4.937-10.138c-0.462-0.145-0.903-0.284-1.328-0.427
			c-0.531-0.14-1.043-0.265-1.538-0.371c-1.594-0.034-3.186-0.054-4.778-0.054L505.66,634.422"/>
	</g>
</g>
<path fill="#FDFEFF" d="M523.773,731.1c-3.574,9.38-1.716,15.732,5.575,19.061c1.807,0.813,3.646,1.362,5.523,1.645
	c1.698,0.143,3.45,0.213,5.255,0.213h10.297c4.922-0.424,8.23-2.283,9.93-5.574l16.881-26.173c2.584-3.54,5.363-3.415,8.337,0.371
	l16.351,24.687c2.763,3.61,6.141,5.397,10.142,5.362h32.172c4.494-0.425,5.946-2.76,4.354-7.007l-42.206-64.77
	c-2.869-4.956-5.965-9.664-9.291-14.122c-3.751-5.098-7.963-9.752-12.636-13.963c-7.609-6.441-15.696-10.282-24.262-11.52
	c-2.478,0.636-2.478,2.513,0,5.627c0.39,0.458,0.762,0.867,1.113,1.22c0.214,0.25,0.409,0.514,0.586,0.796
	c2.089,2.939,3.06,6.284,2.92,10.036c0,5.484-1.877,11.431-5.629,17.837h21.024c3.61,0.213,4.406,2.459,2.389,6.743
	c-9.345,12.139-22.014,17.342-38.013,15.607L526.8,724.623C525.598,726.961,524.589,729.119,523.773,731.1z"/>
</svg>
