<?xml version="1.0" encoding="utf-8"?>
<!-- Generator: Adobe Illustrator 16.0.0, SVG Export Plug-In . SVG Version: 6.00 Build 0)  -->
<!DOCTYPE svg PUBLIC "-//W3C//DTD SVG 1.1//EN" "http://www.w3.org/Graphics/SVG/1.1/DTD/svg11.dtd">
<svg version="1.1" id="Layer_1" xmlns="http://www.w3.org/2000/svg" xmlns:xlink="http://www.w3.org/1999/xlink" x="0px" y="0px"
	 width="1024px" height="1024px" viewBox="0 0 1024 1024" enable-background="new 0 0 1024 1024" xml:space="preserve">
<title>Assets</title>
<path fill="#DEE2E2" d="M1019.146,511.971C1019.146,231.903,792.086,4.864,512,4.864C231.913,4.864,4.854,231.903,4.854,511.971
	c-0.18,135.395,53.957,265.202,150.283,360.349h713.727C965.188,777.172,1019.324,647.364,1019.146,511.971"/>
<path fill="#888888" d="M868.863,872.318H155.137c197.627,195.77,516.079,195.77,713.707,0"/>
<path fill="#082344" d="M331.767,898.291c0,11.264-19.985,20.381-44.66,20.381c-24.673,0-44.64-9.117-44.64-20.381
	c0-11.263,19.986-20.38,44.64-20.38S331.767,887.028,331.767,898.291 M533.66,898.291c0,11.264-19.986,20.381-44.659,20.381
	s-44.64-9.117-44.64-20.381c0-11.263,19.985-20.38,44.64-20.38S533.66,887.028,533.66,898.291"/>
<path fill="#02528A" d="M519.364,593.433c-3.938-19.946-16.68-27.901-35.838-35.838c-18.727-7.876-63.761-17.189-97.059-17.484
	c-33.355,0.274-78.391,9.629-97.235,17.484c-18.845,7.856-31.742,15.892-35.641,35.838l-14.335,110.095v151.896h24.633v23.629
	c0,29.124,42.375,29.124,42.395,0v-23.629H466.71v23.629c0,29.124,42.435,29.124,42.396,0v-23.629h24.556V703.526L519.364,593.433z
	 M325.859,567.952h121.16c11.813,0,11.813,17.86,0,17.919h-121.16C313.946,585.871,313.946,567.913,325.859,567.952 M285.059,807.85
	c-11.266-0.064-20.347-9.251-20.281-20.518c0.066-11.268,9.252-20.347,20.518-20.281c11.182,0.064,20.228,9.119,20.282,20.301
	c0.033,11.288-9.092,20.467-20.38,20.498C285.151,807.851,285.105,807.851,285.059,807.85 M384.992,715.085H276.888
	c-10.555,0.099-12.78-7.502-11.815-15.123l11.145-80.023c1.536-9.63,4.825-16.029,17.525-16.128h185.353
	c12.622,0,15.911,6.479,17.506,16.128l11.146,80.023c0.965,7.621-1.261,15.222-11.815,15.123H384.992z M487.721,807.85
	c-11.267-0.054-20.354-9.23-20.301-20.498c0.054-11.267,9.231-20.354,20.498-20.301c11.189,0.055,20.247,9.111,20.301,20.301
	c0.022,11.3-9.12,20.478-20.419,20.498C487.773,807.85,487.747,807.85,487.721,807.85L487.721,807.85z"/>
<path fill="#3EB4E6" d="M835.723,428.559c-47.753-47.755-125.178-47.758-172.933-0.005c-47.756,47.752-47.759,125.177-0.006,172.934
	c47.753,47.756,125.178,47.758,172.934,0.006c0.002-0.002,0.003-0.004,0.005-0.006c47.754-47.603,47.875-124.901,0.273-172.654
	C835.905,428.741,835.814,428.649,835.723,428.559 M749.259,583.823l-26.918-68.802l26.918-68.801l26.918,68.801L749.259,583.823z
	 M764.48,515.021c0,8.406-6.815,15.223-15.223,15.223s-15.221-6.815-15.221-15.223c0-8.406,6.813-15.222,15.221-15.222
	c8.396-0.011,15.211,6.787,15.223,15.184C764.48,514.996,764.48,515.01,764.48,515.021 M485.732,153.591
	c-73.645,0.086-133.321,59.765-133.408,133.408c0,72.582,126.692,206.481,132.089,212.152c0.701,0.729,1.86,0.751,2.589,0.05
	c0.017-0.018,0.033-0.033,0.049-0.05c5.396-5.671,132.089-139.571,132.089-212.152C619.053,213.356,559.375,153.678,485.732,153.591
	 M485.732,205.064c41.184,0,74.569,33.386,74.569,74.57c0,41.184-33.387,74.57-74.569,74.57c-41.178,0-74.561-33.374-74.571-74.55
	C411.205,238.485,444.563,205.118,485.732,205.064"/>
</svg>
