<?xml version="1.0" encoding="utf-8"?>
<!-- Generator: Adobe Illustrator 19.0.0, SVG Export Plug-In . SVG Version: 6.00 Build 0)  -->
<svg version="1.1" id="Layouts" xmlns="http://www.w3.org/2000/svg" xmlns:xlink="http://www.w3.org/1999/xlink" x="0px" y="0px"
	 viewBox="-180 272.4 249.2 249.6" style="enable-background:new -180 272.4 249.2 249.6;" xml:space="preserve">
<style type="text/css">
	.st0{clip-path:url(#SVGID_2_);fill:#007BB3;}
	.st1{clip-path:url(#SVGID_2_);fill:#005983;}
	.st2{clip-path:url(#SVGID_2_);fill:#AFB3B4;}
	.st3{clip-path:url(#SVGID_2_);fill:#888888;}
	.st4{fill:#FFFFFF;}
	.st5{fill:#E22000;}
</style>
<title>walkthrough_3</title>
<g>
	<defs>
		<path id="SVGID_1_" d="M-177.9,396.8c0,34,13.9,64.8,36.3,87c22.1,21.9,52.6,35.5,86.2,35.5c33.6,0,64.1-13.5,86.2-35.5
			c22.4-22.2,36.3-53,36.3-87c0-67.7-54.8-122.5-122.5-122.5C-123,274.3-177.9,329.1-177.9,396.8"/>
	</defs>
	<clipPath id="SVGID_2_">
		<use xlink:href="#SVGID_1_"  style="overflow:visible;"/>
	</clipPath>
	<polygon class="st0" points="-88.6,376.9 -181.7,283.9 -195,286.8 -195,541 -182.6,538.2 -88.6,444.2 	"/>
	<polygon class="st0" points="-139.6,528.7 -88.6,517.3 -88.6,477.7 	"/>
	<polygon class="st0" points="-88.6,263.2 -154.3,277.8 -88.6,343.5 	"/>
	<polygon class="st0" points="97.3,258.4 11.9,286.8 11.9,343.8 	"/>
	<polygon class="st0" points="11.9,377.2 11.9,535.1 118.2,493.7 118.2,270.8 	"/>
	<polygon class="st1" points="-37.5,393.9 12,343.2 11.4,286.2 -89.4,263.8 -88.4,344.1 	"/>
	<polygon class="st1" points="-88.6,376.9 -88.6,444.2 -55,410.6 	"/>
	<polygon class="st1" points="-88.6,477.7 -88.6,517.3 11.9,535.1 11.9,377.2 	"/>
	<polygon class="st2" points="-88.6,343.5 -154.3,277.8 -181.7,283.9 -88.6,376.9 	"/>
	<polygon class="st2" points="-88.6,444.2 -182.6,538.2 -139.6,528.7 -88.6,477.7 	"/>
	<polygon class="st2" points="11.9,377.2 118.2,270.8 118.2,251.4 97.3,258.4 11.9,343.8 	"/>
	<polygon class="st3" points="-38.2,393.9 -88.6,343.5 -88.6,376.9 -55,410.6 -88.6,444.2 -88.6,477.7 11.9,377.2 11.9,343.8 	"/>
</g>
<g>
	<g>
		<g>
			<path class="st4" d="M6,481.1h-43.8l-21.9-37.9l21.9-37.9H6l21.9,37.9L6,481.1z M-31.9,471.1H0.3l16.1-27.9L0.3,415.3h-32.2
				L-48,443.2L-31.9,471.1z"/>
		</g>
		<polygon class="st4" points="3.2,410.6 22.1,443.5 3.2,476.4 -34.8,476.4 -53.8,443.5 -34.8,410.6 		"/>
	</g>
	<g>
		<path class="st5" d="M9.4,433.9c-4.8,0.7-9.5,1.6-14.2,2.8c-5.1,1.2-10.1,2.7-15.1,4.4c-4.2,1.4-8.2,3-12.2,4.8
			c-0.2,0.1-0.2,0.2-0.2,0.4c0,2.5,0,5.1,0,7.6c0,0.1,0,0.2,0.1,0.3c0.1-0.1,0.2-0.2,0.3-0.3c1.8-2.3,3.6-4.6,5.4-6.9
			c0.9-1.1,1.8-2.3,2.7-3.4c0.1-0.1,0.2-0.1,0.2-0.1c1.9,0,3.9,0,5.8,0c0,0,0.1,0,0.1,0c-0.3,0.4-0.6,0.8-0.9,1.1
			c-2.3,3-4.6,6-6.9,9c-2,2.6-3.9,5.1-5.9,7.7c-0.2,0.2-0.3,0.4-0.5,0.6c-0.1,0.2-0.2,0.1-0.4,0.1c-2.1,0-4.3-0.1-6.4-0.1
			c-0.1,0-0.3,0-0.3,0c0-4,0-8.4,0-12.8c-1,0.2-0.7,0.4-1,0.5c-2.6,1.4-5,3.2-7.5,4.8l12.7,22.4H3.3l19-33.4l-8.5-15
			c-1.3,1.7-2.7,3.4-4,5.1C9.7,433.9,9.6,433.9,9.4,433.9z M-17.3,462c-0.1,0.1-0.2,0.1-0.4,0.1c-2.2,0-4.5-0.1-6.7-0.1
			c-0.1,0-0.2,0-0.3,0c3.4-4,6.8-8.7,10.1-13.1c0,0,0,0.1,0,0.1c-1.8,0-3.5,0-5.3,0c0.4-1,0.7-1,1.1-1.5c0.9-1.2,1.9-2.5,2.8-3.8
			c0.1-0.1,0.2-0.2,0.4-0.2c5.5,0,11,0,16.5,0c0.1,0,0.2,0,0.3,0c-0.3,0.4-0.6,0.8-1,1.2c-1,1.3-2,2.6-3,3.9
			c-0.1,0.1-0.2,0.1-0.3,0.1c-1.3,0-2.6,0-3.9,0c-0.2,0-0.3,0.1-0.4,0.2c-1.8,2.4-3.7,4.9-5.6,7.3C-14.4,458.2-15.9,460.1-17.3,462z
			 M11,443.6c0,6.2,0,13.4,0,18.4c-4,0-5.4,0-7.6,0c0,0,0-0.1,0-0.1c0-0.7,0-1.4,0-2.1c0-0.2,0-0.2,0.2-0.3c0.7-0.1,1.5-0.3,2.2-0.4
			c0.2,0,0.3-0.1,0.4-0.2c1-1.4,2.1-2.7,3.1-4.1c0-0.1-0.1-0.1-0.1-0.2c-2.1,0.2-4.3,0.6-6.3,1.2c0-1.4,0-2.9,0-4.3c0,0,0.1,0,0.1,0
			c-0.1,0.1-0.2,0.3-0.3,0.4c-1.5,1.9-3,3.9-4.5,5.8c-1.1,1.4-2.2,2.8-3.3,4.3c-0.1,0.2-0.2,0.1-0.4,0.1c-1.8,0-3.7-0.1-5.5-0.1
			c-0.1,0-0.2,0-0.3,0c0.2,0,0.4-0.5,0.6-0.7c1.9-2.5,3.9-5,5.8-7.5c2-2.6,3.9-5.1,5.9-7.7c0.6-0.8,1.2-1.6,1.8-2.3
			c0.1-0.1,0.2-0.1,0.2-0.1c2.2,0,5,0,7.2,0C10.4,443.5,9,443.5,11,443.6z"/>
		<path class="st5" d="M-44.2,442.3c2.8-2.3,5.7-4.5,8.7-6.6c3.3-2.3,6.7-4.5,10.3-6.6c3.7-2.2,7.5-4.2,11.3-6.1
			c5.4-2.6,10.9-4.9,16.5-6.7c1.2-0.4,2.4-0.4,3.5-0.7L3.3,411h-38.1l-19,32.6l2.9,4.9c0.4-0.4,0.7-0.8,1.1-1.1
			C-47.9,445.6-46.1,443.9-44.2,442.3z"/>
		<path class="st5" d="M6.6,421c-6.1,1.6-12,3.6-17.7,6c-3.8,1.6-7.5,3.3-11.1,5.2c-4.9,2.5-9.6,5.2-14.1,8.2
			c-3.2,2.1-6.3,4.3-9.3,6.7c-1.3,1.1-2.7,2.3-4,3.4l0.7,1.4c0,0,0,0,0,0c3.1-3,6.4-4.9,9.8-7c0.1-0.1,0.2-0.3,0.2-0.4
			c0-0.3,0-0.6,0-0.9c0,0,0-0.1,0-0.1c0.2,0,0.5,0,0.7,0c0.8,0.1,1.5-0.2,2.3-0.6c3.8-2.3,7.6-4.3,11.6-6.2c5.5-2.6,11-4.9,16.7-6.9
			c4.8-1.7,9.7-3.1,14.6-4.2c1.5-0.4,3.1-0.7,4.7-1l-2.5-4.3C8.3,420.6,7.5,420.8,6.6,421z"/>
	</g>
</g>
</svg>
