<svg id="Layer_1" data-name="Layer 1" xmlns="http://www.w3.org/2000/svg" viewBox="0 0 520 520.03"><defs><style>.cls-1{fill:#dee2e2;}.cls-2{fill:#888;}.cls-3{fill:#082344;}.cls-4{fill:#005983;}.cls-5{fill:#009fdd;}</style></defs><title>Assets</title><path class="cls-1" d="M517.55,260C517.55,117.77,402.24,2.47,260,2.47S2.45,117.77,2.45,260A256.74,256.74,0,0,0,78.77,443H441.23a256.75,256.75,0,0,0,76.32-183"/><path class="cls-2" d="M441.23,443H78.77a257.51,257.51,0,0,0,362.45,0"/><path class="cls-3" d="M168.47,456.19c0,5.72-10.15,10.35-22.68,10.35s-22.67-4.63-22.67-10.35,10.15-10.35,22.67-10.35,22.68,4.63,22.68,10.35"/><path class="cls-3" d="M271,456.19c0,5.72-10.15,10.35-22.68,10.35s-22.67-4.63-22.67-10.35,10.15-10.35,22.67-10.35S271,450.47,271,456.19"/><path class="cls-4" d="M263.74,301.37c-2-10.13-8.47-14.17-18.2-18.2-9.51-4-32.38-8.73-49.29-8.88-16.94.14-39.81,4.89-49.38,8.88s-16.12,8.07-18.1,18.2l-7.28,55.91v77.14H134v12c0,14.79,21.52,14.79,21.53,0v-12H237v12c0,14.79,21.55,14.79,21.53,0v-12H271V357.28Zm-98.27-12.94H227c6,0,6,9.07,0,9.1H165.47c-6.05,0-6.05-9.12,0-9.1M144.75,410.26a10.36,10.36,0,1,1,10.42-10.41,10.38,10.38,0,0,1-10.42,10.41m50.75-47.11H140.6c-5.36.05-6.49-3.81-6-7.68l5.66-40.64c0.78-4.89,2.45-8.14,8.9-8.19h94.13c6.41,0,8.08,3.29,8.89,8.19l5.66,40.64c0.49,3.87-.64,7.73-6,7.68H195.5Zm52.17,47.11a10.36,10.36,0,1,1,10.41-10.41,10.39,10.39,0,0,1-10.41,10.41"/><path class="cls-4" d="M195.5,274.28h0Z"/><path class="cls-5" d="M424.4,217.64a62.1,62.1,0,1,0,0,87.82,62,62,0,0,0,0-87.82m-43.91,78.85-13.67-34.94,13.67-34.94,13.67,34.94Zm7.73-34.94a7.73,7.73,0,1,1-7.73-7.73,7.72,7.72,0,0,1,7.73,7.73"/><path class="cls-5" d="M246.66,78a67.83,67.83,0,0,0-67.75,67.75c0,36.86,64.34,104.86,67.08,107.74a0.93,0.93,0,0,0,1.34,0c2.74-2.88,67.08-70.88,67.08-107.74A67.83,67.83,0,0,0,246.66,78m0,26.14a37.87,37.87,0,1,1-37.87,37.88,37.92,37.92,0,0,1,37.87-37.88"/></svg>