<?xml version="1.0" encoding="utf-8"?>
<!-- Generator: Adobe Illustrator 16.0.0, SVG Export Plug-In . SVG Version: 6.00 Build 0)  -->
<!DOCTYPE svg PUBLIC "-//W3C//DTD SVG 1.1//EN" "http://www.w3.org/Graphics/SVG/1.1/DTD/svg11.dtd">
<svg version="1.1" id="Capa_1" xmlns="http://www.w3.org/2000/svg" xmlns:xlink="http://www.w3.org/1999/xlink" x="0px" y="0px"
	 width="512px" height="512px" viewBox="0 0 512 512" enable-background="new 0 0 512 512" xml:space="preserve">
<g>
	<path fill="#FFFFFF" d="M256,512c141.164,0,256-114.836,256-256S397.164,0,256,0S0,114.836,0,256S114.836,512,256,512z M256,19.692
		c130.294,0,236.308,106.014,236.308,236.308S386.294,492.308,256,492.308S19.692,386.294,19.692,256S125.706,19.692,256,19.692z"/>
	<path fill="#FFFFFF" d="M196.923,149.829v210.166L373.73,257.91L196.923,149.829z M216.615,184.94l118.577,72.487l-118.577,68.461
		V184.94z"/>
</g>
<g>
	<path fill="#FFFFFF" d="M256,512c141.164,0,256-114.836,256-256S397.164,0,256,0S0,114.836,0,256S114.836,512,256,512z M256,19.692
		c130.294,0,236.308,106.014,236.308,236.308S386.294,492.308,256,492.308S19.692,386.294,19.692,256S125.706,19.692,256,19.692z"/>
	<path fill="#FFFFFF" d="M196.923,149.829v210.166L373.73,257.91L196.923,149.829z M216.615,184.94l118.577,72.487l-118.577,68.461
		V184.94z"/>
</g>
</svg>
