<?xml version="1.0" encoding="utf-8"?>
<!-- Generator: Adobe Illustrator 16.0.0, SVG Export Plug-In . SVG Version: 6.00 Build 0)  -->
<!DOCTYPE svg PUBLIC "-//W3C//DTD SVG 1.1//EN" "http://www.w3.org/Graphics/SVG/1.1/DTD/svg11.dtd">
<svg version="1.1" id="Capa_1" xmlns="http://www.w3.org/2000/svg" xmlns:xlink="http://www.w3.org/1999/xlink" x="0px" y="0px"
	 width="512px" height="512px" viewBox="0 0 512 512" enable-background="new 0 0 512 512" xml:space="preserve">
<g>
	<path fill="#FFFFFF" d="M256,512c141.164,0,256-114.836,256-256S397.164,0,256,0S0,114.836,0,256S114.836,512,256,512z M256,19.692
		c130.294,0,236.308,106.014,236.308,236.308S386.294,492.308,256,492.308S19.692,386.294,19.692,256S125.706,19.692,256,19.692z"/>
	<g>
		<g>
			<path fill="#FFFFFF" d="M422.069,251.552c-2.963-4.054-73.56-99.244-163.725-99.244c-90.164,0-160.764,95.19-163.724,99.24
				c-2.806,3.845-2.806,9.06,0,12.905c2.959,4.053,73.56,99.243,163.724,99.243c90.165,0,160.762-95.19,163.725-99.24
				C424.88,260.611,424.88,255.393,422.069,251.552z M258.345,341.829c-66.416,0-123.938-63.18-140.967-83.834
				c17.006-20.673,74.409-83.819,140.967-83.819c66.414,0,123.933,63.168,140.968,83.834
				C382.307,278.682,324.903,341.829,258.345,341.829z"/>
		</g>
	</g>
	<g>
		<g>
			<path fill="#FFFFFF" d="M258.345,192.399c-36.173,0-65.603,29.43-65.603,65.604c0,36.173,29.43,65.604,65.603,65.604
				c36.174,0,65.604-29.431,65.604-65.604C323.948,221.829,294.519,192.399,258.345,192.399z M258.345,301.737
				c-24.116,0-43.735-19.619-43.735-43.734c0-24.116,19.62-43.735,43.735-43.735c24.117,0,43.736,19.619,43.736,43.735
				C302.081,282.118,282.462,301.737,258.345,301.737z"/>
		</g>
	</g>
</g>
<path fill="#FFFFFF" d="M256,512c141.164,0,256-114.836,256-256S397.164,0,256,0S0,114.836,0,256S114.836,512,256,512z M256,19.692
	c130.294,0,236.308,106.014,236.308,236.308S386.294,492.308,256,492.308S19.692,386.294,19.692,256S125.706,19.692,256,19.692z"/>
</svg>
