<?xml version="1.0" encoding="utf-8"?>
<!-- Generator: Adobe Illustrator 16.0.0, SVG Export Plug-In . SVG Version: 6.00 Build 0)  -->
<!DOCTYPE svg PUBLIC "-//W3C//DTD SVG 1.1//EN" "http://www.w3.org/Graphics/SVG/1.1/DTD/svg11.dtd">
<svg version="1.1" id="Layer_1" xmlns="http://www.w3.org/2000/svg" xmlns:xlink="http://www.w3.org/1999/xlink" x="0px" y="0px"
	 width="128px" height="128px" viewBox="0 0 128 128" enable-background="new 0 0 128 128" xml:space="preserve">
<g transform="matrix( 1, 0, 0, 1, 0,0) ">
	<g>
		<g id="Layer0_0_FILL">
			<path fill="#03528B" d="M53.072,38.886c-1.976,0.071-3.553,0.938-4.734,2.605l-7.716,11.548
				c-0.034,0.116-0.208,0.383-0.526,0.801c-0.316,0.401-0.718,0.628-1.203,0.677c-0.649,0.066-1.194-0.293-1.627-1.077l-7.715-11.9
				c-0.935-1.604-3.064-2.546-6.388-2.83H8.958c-1.92,0.319-2.564,1.403-1.929,3.255l22.069,34.296
				c5.159,8.933,11.189,13.769,18.087,14.503c1.754-0.09,2.414-0.601,1.979-1.527c-3.072-3.774-3.382-7.74-0.927-11.899
				l6.688-10.823h-7.891c-0.635-0.047-1.027-0.283-1.178-0.7c-0.316-0.567-0.108-1.502,0.626-2.805l3.082-5.587
				c0.635-1.252,1.687-1.812,3.156-1.678h8.893l5.46-8.669c0.57-0.95,0.894-1.636,0.978-2.053c0.083-0.435,0.125-0.709,0.125-0.827
				c0.191-2.431-0.587-4.025-2.329-4.784l-3.606,0.175V39.01L53.072,38.886 M62.242,39.01v0.577l3.606-0.175
				c-0.218-0.067-0.427-0.134-0.625-0.2c-0.25-0.068-0.494-0.127-0.728-0.176C63.744,39.018,62.992,39.01,62.242,39.01"/>
		</g>
	</g>
</g>
<path fill="#3EB4E6" d="M61.239,82.022c-1.688,4.427-0.812,7.423,2.628,8.994c0.853,0.383,1.72,0.643,2.604,0.776
	c0.803,0.065,1.628,0.101,2.483,0.101h4.857c2.322-0.201,3.885-1.077,4.686-2.631l7.965-12.35c1.221-1.671,2.532-1.613,3.937,0.173
	l7.715,11.651c1.302,1.704,2.896,2.546,4.784,2.529h15.182c2.119-0.2,2.804-1.301,2.054-3.305l-19.917-30.564
	c-1.352-2.339-2.813-4.559-4.384-6.662c-1.771-2.407-3.755-4.602-5.962-6.591c-3.59-3.038-7.406-4.851-11.445-5.435
	c-1.171,0.3-1.171,1.186,0,2.654c0.182,0.218,0.356,0.41,0.523,0.578c0.1,0.117,0.193,0.243,0.276,0.376
	c0.987,1.386,1.443,2.964,1.377,4.734c0,2.59-0.886,5.394-2.659,8.417h9.924c1.703,0.101,2.08,1.161,1.128,3.182
	c-4.409,5.729-10.388,8.184-17.938,7.365l-8.392,12.952C62.098,80.069,61.622,81.087,61.239,82.022z"/>
</svg>
