<?xml version="1.0" encoding="utf-8"?>
<!-- Generator: Adobe Illustrator 16.0.0, SVG Export Plug-In . SVG Version: 6.00 Build 0)  -->
<!DOCTYPE svg PUBLIC "-//W3C//DTD SVG 1.1//EN" "http://www.w3.org/Graphics/SVG/1.1/DTD/svg11.dtd">
<svg version="1.1" id="Layer_1" xmlns="http://www.w3.org/2000/svg" xmlns:xlink="http://www.w3.org/1999/xlink" x="0px" y="0px"
	 width="384px" height="384px" viewBox="0 0 384 384" enable-background="new 0 0 384 384" xml:space="preserve">
<g transform="matrix( 1, 0, 0, 1, 0,0) ">
	<g>
		<g id="Layer0_0_FILL">
			<path fill="#03528B" d="M159.604,114.135c-5.994,0.216-10.775,2.846-14.355,7.899l-23.397,35.018
				c-0.104,0.352-0.635,1.16-1.598,2.429c-0.958,1.215-2.178,1.904-3.649,2.053c-1.969,0.201-3.619-0.891-4.933-3.267
				l-23.396-36.084c-2.834-4.863-9.292-7.721-19.37-8.582H25.832c-5.819,0.966-7.774,4.256-5.845,9.873l66.919,103.995
				c15.644,27.089,33.929,41.752,54.846,43.98c5.317-0.274,7.32-1.822,6-4.636c-9.315-11.444-10.256-23.469-2.811-36.079
				l20.283-32.822h-23.929c-1.926-0.141-3.116-0.856-3.571-2.118c-0.958-1.725-0.327-4.56,1.899-8.508l9.345-16.942
				c1.927-3.798,5.117-5.492,9.572-5.087h26.964l16.556-26.288c1.733-2.88,2.713-4.96,2.965-6.226
				c0.253-1.317,0.38-2.151,0.38-2.509c0.583-7.373-1.78-12.204-7.06-14.507l-10.937,0.532v-1.748L159.604,114.135 M187.409,114.511
				v1.748l10.937-0.532c-0.662-0.203-1.298-0.404-1.897-0.605c-0.759-0.206-1.497-0.385-2.207-0.533
				C191.965,114.535,189.682,114.511,187.409,114.511"/>
		</g>
	</g>
</g>
<path fill="#3EB4E6" d="M184.369,244.937c-5.12,13.427-2.462,22.513,7.97,27.277c2.587,1.158,5.214,1.946,7.895,2.349
	c2.437,0.197,4.937,0.307,7.531,0.307h14.728c7.047-0.605,11.781-3.267,14.213-7.973l24.148-37.449
	c3.703-5.07,7.68-4.896,11.938,0.523l23.394,35.331c3.949,5.165,8.781,7.723,14.509,7.666h46.031
	c6.427-0.604,8.501-3.941,6.23-10.017l-60.396-92.684c-4.098-7.093-8.529-13.825-13.291-20.201
	c-5.372-7.296-11.386-13.955-18.076-19.984c-10.889-9.214-22.462-14.71-34.709-16.481c-3.549,0.91-3.549,3.595,0,8.046
	c0.553,0.662,1.081,1.244,1.59,1.752c0.296,0.356,0.587,0.737,0.837,1.141c2.992,4.204,4.376,8.989,4.174,14.354
	c0,7.855-2.688,16.355-8.063,25.525h30.091c5.164,0.305,6.308,3.519,3.421,9.648c-13.371,17.371-31.497,24.814-54.396,22.328
	l-25.442,39.283C186.971,239.015,185.528,242.101,184.369,244.937z"/>
</svg>
