<?xml version="1.0" encoding="utf-8"?>
<!-- Generator: Adobe Illustrator 16.0.0, SVG Export Plug-In . SVG Version: 6.00 Build 0)  -->
<!DOCTYPE svg PUBLIC "-//W3C//DTD SVG 1.1//EN" "http://www.w3.org/Graphics/SVG/1.1/DTD/svg11.dtd">
<svg version="1.1" id="Layer_1" xmlns="http://www.w3.org/2000/svg" xmlns:xlink="http://www.w3.org/1999/xlink" x="0px" y="0px"
	 width="96px" height="96px" viewBox="0 0 96 96" enable-background="new 0 0 96 96" xml:space="preserve">
<g transform="matrix( 1, 0, 0, 1, 0,0) ">
	<g>
		<g id="Layer0_0_FILL">
			<path fill="#03528B" d="M40.021,28.747c-1.472,0.053-2.646,0.698-3.526,1.94l-5.748,8.602c-0.025,0.086-0.155,0.285-0.392,0.597
				c-0.235,0.298-0.535,0.468-0.896,0.504c-0.484,0.049-0.889-0.218-1.212-0.803L22.5,30.724c-0.696-1.194-2.283-1.896-4.758-2.108
				H7.162c-1.43,0.237-1.91,1.045-1.437,2.425l16.438,25.545c3.843,6.653,8.334,10.256,13.472,10.803
				c1.306-0.067,1.798-0.447,1.474-1.138c-2.289-2.812-2.519-5.765-0.69-8.863l4.981-8.062h-5.877
				c-0.473-0.035-0.765-0.211-0.877-0.521c-0.236-0.422-0.081-1.119,0.466-2.089l2.296-4.162c0.473-0.933,1.256-1.349,2.351-1.25
				h6.624l4.066-6.457c0.425-0.708,0.666-1.218,0.729-1.529c0.062-0.324,0.093-0.529,0.093-0.616
				c0.143-1.811-0.438-2.999-1.734-3.563l-2.687,0.13v-0.43L40.021,28.747 M46.851,28.839v0.43l2.687-0.13
				c-0.162-0.05-0.318-0.1-0.466-0.149c-0.187-0.051-0.368-0.095-0.542-0.131C47.97,28.845,47.41,28.839,46.851,28.839"/>
		</g>
	</g>
</g>
<path fill="#3EB4E6" d="M46.104,60.877c-1.257,3.297-0.604,5.529,1.958,6.699c0.635,0.285,1.281,0.479,1.939,0.578
	c0.598,0.049,1.213,0.075,1.85,0.075h3.618c1.729-0.149,2.893-0.803,3.49-1.96l5.933-9.198c0.908-1.245,1.886-1.201,2.932,0.129
	l5.746,8.679c0.97,1.269,2.157,1.896,3.563,1.883h11.309c1.578-0.148,2.088-0.969,1.529-2.461L75.137,42.535
	c-1.007-1.742-2.095-3.396-3.265-4.962c-1.32-1.792-2.798-3.428-4.441-4.909c-2.674-2.263-5.517-3.613-8.525-4.048
	c-0.872,0.223-0.872,0.883,0,1.977c0.136,0.163,0.266,0.306,0.391,0.43c0.074,0.087,0.144,0.181,0.205,0.28
	c0.736,1.033,1.075,2.208,1.026,3.526c0,1.929-0.66,4.018-1.98,6.27h7.392c1.268,0.075,1.549,0.864,0.84,2.37
	c-3.284,4.268-7.737,6.096-13.361,5.486l-6.25,9.647C46.744,59.422,46.389,60.18,46.104,60.877z"/>
</svg>
