<?xml version="1.0" encoding="utf-8"?>
<!-- Generator: Adobe Illustrator 16.0.0, SVG Export Plug-In . SVG Version: 6.00 Build 0)  -->
<!DOCTYPE svg PUBLIC "-//W3C//DTD SVG 1.1//EN" "http://www.w3.org/Graphics/SVG/1.1/DTD/svg11.dtd">
<svg version="1.1" id="Layer_1" xmlns="http://www.w3.org/2000/svg" xmlns:xlink="http://www.w3.org/1999/xlink" x="0px" y="0px"
	 width="144px" height="144px" viewBox="0 0 144 144" enable-background="new 0 0 144 144" xml:space="preserve">
<g transform="matrix( 1, 0, 0, 1, 0,0) ">
	<g>
		<g id="Layer0_0_FILL">
			<path fill="#03528B" d="M59.199,43.893c-2.263,0.082-4.069,1.074-5.421,2.983L44.942,60.1c-0.039,0.132-0.239,0.438-0.603,0.917
				c-0.362,0.459-0.823,0.719-1.378,0.775c-0.744,0.076-1.367-0.336-1.863-1.233l-8.835-13.627c-1.071-1.836-3.51-2.916-7.315-3.241
				H8.683c-2.198,0.365-2.936,1.606-2.208,3.728l25.272,39.273c5.907,10.229,12.813,15.767,20.711,16.608
				c2.008-0.104,2.764-0.688,2.266-1.75c-3.518-4.322-3.874-8.863-1.062-13.625l7.659-12.395h-9.036
				c-0.727-0.054-1.176-0.324-1.349-0.802c-0.362-0.65-0.124-1.721,0.717-3.212l3.529-6.398c0.728-1.434,1.932-2.074,3.615-1.921
				h10.183l6.252-9.927c0.653-1.088,1.023-1.873,1.119-2.351c0.095-0.498,0.144-0.813,0.144-0.947
				c0.22-2.784-0.672-4.609-2.667-5.479l-4.129,0.2v-0.66L59.199,43.893 M69.7,44.035v0.66l4.129-0.2
				c-0.249-0.077-0.489-0.153-0.716-0.229c-0.287-0.078-0.566-0.146-0.833-0.201C71.42,44.044,70.559,44.035,69.7,44.035"/>
		</g>
	</g>
</g>
<path fill="#3EB4E6" d="M68.552,93.289c-1.933,5.069-0.93,8.501,3.01,10.3c0.977,0.438,1.97,0.735,2.981,0.889
	c0.92,0.074,1.864,0.115,2.844,0.115h5.563c2.66-0.229,4.449-1.233,5.366-3.013l9.12-14.142c1.398-1.914,2.899-1.848,4.508,0.198
	l8.835,13.342c1.49,1.952,3.315,2.916,5.478,2.896h17.385c2.427-0.229,3.211-1.488,2.353-3.783l-22.808-35
	c-1.548-2.678-3.221-5.22-5.021-7.628c-2.028-2.756-4.299-5.27-6.826-7.547c-4.111-3.479-8.481-5.555-13.106-6.224
	c-1.341,0.343-1.341,1.357,0,3.039c0.208,0.25,0.408,0.469,0.6,0.661c0.113,0.134,0.222,0.279,0.316,0.431
	c1.131,1.587,1.652,3.395,1.577,5.421c0,2.966-1.015,6.176-3.046,9.639h11.364c1.95,0.115,2.382,1.329,1.291,3.644
	c-5.049,6.56-11.895,9.372-20.54,8.433l-9.609,14.833C69.535,91.053,68.99,92.218,68.552,93.289z"/>
</svg>
