<?xml version="1.0" encoding="utf-8"?>
<!-- Generator: Adobe Illustrator 16.0.0, SVG Export Plug-In . SVG Version: 6.00 Build 0)  -->
<!DOCTYPE svg PUBLIC "-//W3C//DTD SVG 1.1//EN" "http://www.w3.org/Graphics/SVG/1.1/DTD/svg11.dtd">
<svg version="1.1" id="Layer_1" xmlns="http://www.w3.org/2000/svg" xmlns:xlink="http://www.w3.org/1999/xlink" x="0px" y="0px"
	 width="152px" height="152px" viewBox="0 0 152 152" enable-background="new 0 0 152 152" xml:space="preserve">
<g transform="matrix( 1, 0, 0, 1, 0,0) ">
	<g>
		<g id="Layer0_0_FILL">
			<path fill="#03528B" d="M62.782,45.496c-2.466,0.088-4.433,1.17-5.906,3.25l-9.627,14.408c-0.042,0.145-0.261,0.478-0.657,1
				c-0.394,0.5-0.896,0.783-1.501,0.845c-0.81,0.083-1.489-0.366-2.03-1.344l-9.626-14.847c-1.167-2-3.824-3.177-7.97-3.531H7.742
				c-2.395,0.397-3.199,1.75-2.405,4.062l27.534,42.789c6.436,11.146,13.959,17.178,22.566,18.096
				c2.188-0.113,3.012-0.75,2.469-1.907c-3.833-4.709-4.22-9.656-1.156-14.845l8.345-13.505h-9.845
				c-0.792-0.058-1.282-0.353-1.469-0.872c-0.395-0.709-0.135-1.875,0.782-3.5l3.845-6.971c0.793-1.563,2.105-2.26,3.938-2.093
				h11.094l6.812-10.816c0.713-1.185,1.116-2.041,1.22-2.562c0.104-0.542,0.156-0.885,0.156-1.032
				c0.239-3.033-0.732-5.021-2.905-5.969l-4.499,0.219v-0.72L62.782,45.496 M74.223,45.649v0.72l4.499-0.219
				c-0.271-0.084-0.533-0.167-0.78-0.249c-0.313-0.085-0.616-0.159-0.908-0.22C76.097,45.66,75.158,45.649,74.223,45.649"/>
		</g>
	</g>
</g>
<path fill="#3EB4E6" d="M72.972,99.313c-2.106,5.523-1.013,9.262,3.279,11.222c1.064,0.478,2.146,0.802,3.248,0.968
	c1.003,0.081,2.031,0.126,3.099,0.126h6.061c2.898-0.249,4.847-1.344,5.847-3.281l9.937-15.408c1.523-2.086,3.159-2.014,4.911,0.216
	l9.626,14.536c1.624,2.126,3.612,3.178,5.969,3.155h18.94c2.644-0.25,3.498-1.622,2.563-4.122L121.602,68.59
	c-1.687-2.918-3.51-5.688-5.47-8.311c-2.21-3.002-4.685-5.742-7.438-8.223c-4.479-3.791-9.241-6.053-14.28-6.781
	c-1.461,0.374-1.461,1.479,0,3.311c0.228,0.272,0.445,0.511,0.654,0.721c0.122,0.146,0.241,0.303,0.344,0.469
	c1.231,1.729,1.801,3.698,1.718,5.906c0,3.232-1.105,6.729-3.317,10.502h12.381c2.125,0.125,2.596,1.447,1.407,3.97
	c-5.501,7.147-12.959,10.21-22.38,9.188L74.751,95.504C74.042,96.877,73.449,98.146,72.972,99.313z"/>
</svg>
