<?xml version="1.0" encoding="utf-8"?>
<!-- Generator: Adobe Illustrator 16.0.0, SVG Export Plug-In . SVG Version: 6.00 Build 0)  -->
<!DOCTYPE svg PUBLIC "-//W3C//DTD SVG 1.1//EN" "http://www.w3.org/Graphics/SVG/1.1/DTD/svg11.dtd">
<svg version="1.1" id="Layer_1" xmlns="http://www.w3.org/2000/svg" xmlns:xlink="http://www.w3.org/1999/xlink" x="0px" y="0px"
	 width="192px" height="192px" viewBox="0 0 192 192" enable-background="new 0 0 192 192" xml:space="preserve">
<g transform="matrix( 1, 0, 0, 1, 0,0) ">
	<g>
		<g id="Layer0_0_FILL">
			<path fill="#03528B" d="M80.14,58.545c-3.084,0.111-5.544,1.464-7.386,4.064L60.715,80.626c-0.053,0.181-0.326,0.597-0.822,1.25
				c-0.493,0.625-1.121,0.979-1.877,1.057c-1.013,0.103-1.862-0.458-2.539-1.681L43.44,62.686c-1.458-2.502-4.781-3.973-9.966-4.416
				H11.312c-2.994,0.497-4,2.189-3.008,5.08l34.432,53.508c8.049,13.938,17.457,21.481,28.219,22.629
				c2.736-0.142,3.766-0.938,3.087-2.386c-4.793-5.888-5.277-12.075-1.446-18.563l10.436-16.888H70.72
				c-0.99-0.072-1.603-0.44-1.837-1.09c-0.493-0.887-0.168-2.346,0.977-4.377l4.808-8.717c0.992-1.954,2.633-2.826,4.925-2.617
				h13.874l8.519-13.526c0.892-1.482,1.396-2.552,1.525-3.203c0.13-0.678,0.195-1.107,0.195-1.291
				c0.3-3.793-0.916-6.279-3.633-7.464l-5.626,0.273v-0.899L80.14,58.545 M94.447,58.738v0.899l5.626-0.273
				c-0.34-0.104-0.667-0.208-0.976-0.312c-0.391-0.106-0.771-0.198-1.136-0.274C96.791,58.75,95.616,58.738,94.447,58.738"/>
		</g>
	</g>
</g>
<path fill="#3EB4E6" d="M92.882,125.845c-2.634,6.908-1.267,11.583,4.101,14.034c1.331,0.597,2.683,1.002,4.062,1.209
	c1.254,0.102,2.54,0.158,3.875,0.158h7.578c3.625-0.312,6.062-1.681,7.313-4.103l12.425-19.269c1.905-2.608,3.951-2.519,6.142,0.27
	l12.037,18.179c2.031,2.657,4.519,3.973,7.465,3.944h23.685c3.307-0.312,4.374-2.028,3.205-5.154l-31.074-47.688
	c-2.108-3.649-4.389-7.113-6.839-10.393c-2.764-3.754-5.858-7.18-9.301-10.283c-5.603-4.741-11.557-7.569-17.858-8.48
	c-1.826,0.468-1.826,1.85,0,4.14c0.284,0.34,0.557,0.64,0.818,0.901c0.152,0.183,0.302,0.379,0.431,0.587
	c1.539,2.163,2.251,4.625,2.147,7.386c0,4.042-1.383,8.415-4.148,13.133h15.482c2.657,0.156,3.245,1.81,1.76,4.964
	c-6.879,8.938-16.206,12.768-27.987,11.489l-13.091,20.212C94.221,122.798,93.479,124.386,92.882,125.845z"/>
</svg>
