<?xml version="1.0" encoding="utf-8"?>
<!-- Generator: Adobe Illustrator 16.0.0, SVG Export Plug-In . SVG Version: 6.00 Build 0)  -->
<!DOCTYPE svg PUBLIC "-//W3C//DTD SVG 1.1//EN" "http://www.w3.org/Graphics/SVG/1.1/DTD/svg11.dtd">
<svg version="1.1" id="Layer_1" xmlns="http://www.w3.org/2000/svg" xmlns:xlink="http://www.w3.org/1999/xlink" x="0px" y="0px"
	 width="512px" height="512px" viewBox="0 0 512 512" enable-background="new 0 0 512 512" xml:space="preserve">
<g transform="matrix( 1, 0, 0, 1, 0,0) ">
	<g>
		<g id="Layer0_0_FILL">
			<path fill="#03528B" d="M212.709,149.371c-8.215,0.295-14.768,3.899-19.674,10.825l-32.065,47.99
				c-0.142,0.482-0.87,1.59-2.19,3.329c-1.312,1.666-2.984,2.609-5.001,2.813c-2.698,0.275-4.959-1.22-6.76-4.476L114.954,160.4
				c-3.884-6.665-12.735-10.582-26.545-11.762H29.379c-7.975,1.324-10.654,5.833-8.011,13.53l91.71,142.522
				c21.439,37.125,46.499,57.22,75.165,60.273c7.287-0.375,10.031-2.497,8.224-6.354c-12.767-15.684-14.057-32.162-3.853-49.445
				l27.796-44.981h-32.793c-2.64-0.192-4.271-1.173-4.895-2.902c-1.312-2.364-0.447-6.249,2.604-11.66l12.807-23.219
				c2.641-5.205,7.012-7.527,13.119-6.971h36.953l22.69-36.026c2.376-3.947,3.718-6.797,4.063-8.532
				c0.347-1.805,0.521-2.948,0.521-3.438c0.799-10.104-2.44-16.725-9.675-19.882l-14.988,0.729v-2.396L212.709,149.371
				 M250.815,149.886v2.396l14.988-0.729c-0.907-0.277-1.779-0.553-2.601-0.829c-1.04-0.282-2.052-0.528-3.024-0.73
				C257.06,149.918,253.931,149.886,250.815,149.886"/>
		</g>
	</g>
</g>
<path fill="#3EB4E6" d="M246.648,328.629c-7.016,18.4-3.374,30.853,10.923,37.384c3.545,1.587,7.146,2.667,10.819,3.219
	c3.339,0.27,6.765,0.42,10.321,0.42h20.184c9.658-0.83,16.146-4.478,19.479-10.927l33.095-51.322
	c5.075-6.949,10.524-6.71,16.359,0.717l32.061,48.42c5.411,7.078,12.034,10.584,19.883,10.506h63.085
	c8.809-0.828,11.65-5.402,8.538-13.728l-82.771-127.019c-5.614-9.721-11.688-18.947-18.214-27.685
	c-7.362-10-15.604-19.125-24.772-27.388c-14.922-12.628-30.783-20.16-47.567-22.587c-4.864,1.248-4.864,4.927,0,11.028
	c0.757,0.907,1.481,1.705,2.179,2.401c0.405,0.488,0.804,1.011,1.146,1.563c4.101,5.761,5.997,12.319,5.721,19.672
	c0,10.765-3.684,22.414-11.05,34.981h41.239c7.077,0.417,8.644,4.822,4.688,13.223c-18.324,23.807-43.166,34.008-74.547,30.6
	l-34.868,53.837C250.215,320.514,248.238,324.743,246.648,328.629z"/>
</svg>
