<?xml version="1.0" encoding="utf-8"?>
<!-- Generator: Adobe Illustrator 16.0.0, SVG Export Plug-In . SVG Version: 6.00 Build 0)  -->
<!DOCTYPE svg PUBLIC "-//W3C//DTD SVG 1.1//EN" "http://www.w3.org/Graphics/SVG/1.1/DTD/svg11.dtd">
<svg version="1.1" id="Layer_1" xmlns="http://www.w3.org/2000/svg" xmlns:xlink="http://www.w3.org/1999/xlink" x="0px" y="0px"
	 width="72px" height="72px" viewBox="0 0 72 72" enable-background="new 0 0 72 72" xml:space="preserve">
<g transform="matrix( 1, 0, 0, 1, 0,0) ">
	<g>
		<g id="Layer0_0_FILL">
			<path fill="#03528B" d="M29.387,22.49c-1.183,0.042-2.128,0.562-2.834,1.559l-4.62,6.915c-0.02,0.07-0.125,0.229-0.315,0.479
				c-0.189,0.24-0.43,0.376-0.72,0.405c-0.389,0.04-0.715-0.175-0.975-0.645l-4.619-7.125c-0.56-0.96-1.835-1.524-3.824-1.694H2.974
				c-1.149,0.19-1.535,0.84-1.155,1.949l13.214,20.534c3.089,5.349,6.699,8.244,10.83,8.684c1.05-0.055,1.445-0.359,1.185-0.914
				c-1.84-2.261-2.025-4.635-0.555-7.125l4.004-6.479h-4.725c-0.38-0.029-0.615-0.17-0.705-0.42c-0.189-0.34-0.065-0.899,0.375-1.68
				l1.845-3.345c0.38-0.75,1.01-1.085,1.89-1.005h5.325l3.269-5.19c0.341-0.569,0.535-0.979,0.585-1.229
				c0.05-0.26,0.075-0.425,0.075-0.496c0.114-1.456-0.352-2.41-1.395-2.864l-2.16,0.104v-0.345L29.387,22.49 M34.876,22.564v0.345
				l2.16-0.104c-0.13-0.041-0.255-0.08-0.375-0.12c-0.15-0.041-0.295-0.076-0.435-0.105C35.776,22.569,35.326,22.564,34.876,22.564"
				/>
		</g>
	</g>
</g>
<path fill="#3EB4E6" d="M34.276,48.317c-1.01,2.65-0.485,4.444,1.574,5.385c0.511,0.229,1.03,0.385,1.56,0.465
	c0.48,0.04,0.975,0.061,1.486,0.061h2.908c1.391-0.12,2.326-0.646,2.806-1.575l4.77-7.395c0.729-1,1.516-0.966,2.355,0.104
	l4.619,6.976c0.78,1.02,1.734,1.524,2.865,1.514h9.09c1.269-0.119,1.679-0.779,1.229-1.979l-11.925-18.3
	c-0.81-1.4-1.685-2.729-2.625-3.989c-1.061-1.44-2.249-2.755-3.569-3.946c-2.149-1.819-4.435-2.904-6.854-3.254
	c-0.701,0.179-0.701,0.709,0,1.589c0.109,0.13,0.214,0.246,0.314,0.345c0.06,0.07,0.115,0.146,0.165,0.225
	c0.591,0.831,0.864,1.775,0.825,2.835c0,1.55-0.531,3.229-1.592,5.04h5.941c1.019,0.06,1.244,0.695,0.675,1.905
	c-2.641,3.43-6.22,4.9-10.74,4.41l-5.024,7.755C34.791,47.147,34.506,47.757,34.276,48.317z"/>
</svg>
